<?xml version="1.0" encoding="UTF-8"?>
<!DOCTYPE svg PUBLIC "-//W3C//DTD SVG 1.1//EN" "http://www.w3.org/Graphics/SVG/1.1/DTD/svg11.dtd">
<!-- Creator: CorelDRAW 2021 (64-Bit) -->
<svg xmlns="http://www.w3.org/2000/svg" xml:space="preserve" width="210mm" height="297mm" version="1.1" style="shape-rendering:geometricPrecision; text-rendering:geometricPrecision; image-rendering:optimizeQuality; fill-rule:evenodd; clip-rule:evenodd"
viewBox="0 0 21000 29700"
 xmlns:xlink="http://www.w3.org/1999/xlink"
 xmlns:xodm="http://www.corel.com/coreldraw/odm/2003">
 <defs>
  <style type="text/css">
   <![CDATA[
    .str4 {stroke:#15171A;stroke-width:20;stroke-miterlimit:22.9256;stroke-opacity:0.400000}
    .str5 {stroke:#15171A;stroke-width:20;stroke-miterlimit:22.9256;stroke-opacity:0.768627}
    .str0 {stroke:#15171A;stroke-width:200;stroke-miterlimit:22.9256}
    .str1 {stroke:#15171A;stroke-width:20;stroke-miterlimit:22.9256}
    .str3 {stroke:#4D2E26;stroke-width:20;stroke-miterlimit:22.9256}
    .str2 {stroke:#15171A;stroke-width:20;stroke-linejoin:round;stroke-miterlimit:22.9256}
    .fil14 {fill:none}
    .fil27 {fill:none}
    .fil4 {fill:#14171B}
    .fil5 {fill:#15171A}
    .fil25 {fill:#191E6E}
    .fil0 {fill:#750F42}
    .fil30 {fill:#852F4D}
    .fil1 {fill:#857379}
    .fil13 {fill:#9EB0E7}
    .fil21 {fill:#C93662}
    .fil15 {fill:#4D2E26;fill-opacity:0.109804}
    .fil16 {fill:#4D2E26;fill-opacity:0.129412}
    .fil24 {fill:#14172A;fill-opacity:0.188235}
    .fil20 {fill:#352928;fill-opacity:0.188235}
    .fil18 {fill:#7D5355;fill-opacity:0.211765}
    .fil19 {fill:#604847;fill-opacity:0.231373}
    .fil17 {fill:#7D5355;fill-opacity:0.231373}
    .fil23 {fill:#3C4375;fill-opacity:0.600000}
    .fil22 {fill:#3C4375;fill-opacity:0.600000}
    .fil31 {fill:#EAFFFF;fill-opacity:0.768627}
    .fil6 {fill:url(#id0)}
    .fil9 {fill:url(#id1)}
    .fil10 {fill:url(#id2)}
    .fil7 {fill:url(#id3)}
    .fil26 {fill:url(#id4)}
    .fil2 {fill:url(#id5)}
    .fil8 {fill:url(#id6)}
    .fil11 {fill:url(#id7)}
    .fil3 {fill:url(#id8)}
    .fil12 {fill:url(#id9)}
    .fil33 {fill:url(#id10);fill-opacity:0.321569}
    .fil32 {fill:url(#id11);fill-opacity:0.341176}
    .fil28 {fill:url(#id12);fill-opacity:0.341176}
    .fil29 {fill:url(#id13);fill-opacity:0.400000}
   ]]>
  </style>
  <linearGradient id="id0" gradientUnits="userSpaceOnUse" x1="9241.94" y1="11787.67" x2="9281.65" y2="11225.56">
   <stop offset="0" style="stop-opacity:1; stop-color:#D0D3E2"/>
   <stop offset="0.741176" style="stop-opacity:1; stop-color:#CFCFE9"/>
   <stop offset="1" style="stop-opacity:1; stop-color:#CDCAF0"/>
  </linearGradient>
  <linearGradient id="id1" gradientUnits="userSpaceOnUse" xlink:href="#id0" x1="12486.63" y1="12448.23" x2="12511.32" y2="12018.53">
  </linearGradient>
  <linearGradient id="id2" gradientUnits="userSpaceOnUse" x1="12456.98" y1="12443.05" x2="12555.5" y2="12015.6">
   <stop offset="0" style="stop-opacity:1; stop-color:#131418"/>
   <stop offset="0.741176" style="stop-opacity:1; stop-color:#1A191A"/>
   <stop offset="1" style="stop-opacity:1; stop-color:#201E1B"/>
  </linearGradient>
  <linearGradient id="id3" gradientUnits="userSpaceOnUse" xlink:href="#id2" x1="9189.56" y1="11714.13" x2="9326.57" y2="11231.75">
  </linearGradient>
  <linearGradient id="id4" gradientUnits="userSpaceOnUse" x1="7350.83" y1="11098.93" x2="14041.83" y2="12574.26">
   <stop offset="0" style="stop-opacity:1; stop-color:#191E6E"/>
   <stop offset="1" style="stop-opacity:1; stop-color:#D00800"/>
  </linearGradient>
  <linearGradient id="id5" gradientUnits="userSpaceOnUse" x1="2492.02" y1="20412.72" x2="14516.85" y2="10309.9">
   <stop offset="0" style="stop-opacity:1; stop-color:#14171B"/>
   <stop offset="0.490196" style="stop-opacity:1; stop-color:#13151A"/>
   <stop offset="0.670588" style="stop-opacity:1; stop-color:#121317"/>
   <stop offset="0.768627" style="stop-opacity:1; stop-color:#13151B"/>
   <stop offset="1" style="stop-opacity:1; stop-color:#141620"/>
  </linearGradient>
  <radialGradient id="id6" gradientUnits="userSpaceOnUse" gradientTransform="matrix(1.44792 0.546503 -0.297871 0.848675 -783 -3363)" cx="9297.9" cy="11354.55" r="78.33" fx="9297.9" fy="11354.55">
   <stop offset="0" style="stop-opacity:1; stop-color:#EAFFFF"/>
   <stop offset="0.129412" style="stop-opacity:1; stop-color:#758199"/>
   <stop offset="0.380392" style="stop-opacity:1; stop-color:#1A1D21"/>
   <stop offset="0.509804" style="stop-opacity:1; stop-color:#171A1D"/>
   <stop offset="1" style="stop-opacity:1; stop-color:#15171A"/>
  </radialGradient>
  <radialGradient id="id7" gradientUnits="userSpaceOnUse" gradientTransform="matrix(1.49816 0.393687 -0.308182 0.611322 -2496 -221)" xlink:href="#id6" cx="12477.83" cy="12070.77" r="111.18" fx="12477.83" fy="12070.77">
  </radialGradient>
  <radialGradient id="id8" gradientUnits="userSpaceOnUse" gradientTransform="matrix(0.626311 -0.426178 0.613694 1.60849 -2699 -2023)" cx="11733.99" cy="11542.76" r="2554.31" fx="11733.99" fy="11542.76">
   <stop offset="0" style="stop-opacity:1; stop-color:#BFBEDC"/>
   <stop offset="1" style="stop-opacity:1; stop-color:#A78E9F"/>
  </radialGradient>
  <radialGradient id="id9" gradientUnits="userSpaceOnUse" gradientTransform="matrix(1.31555 -0 -0 0.595659 -3386 6218)" cx="10731.56" cy="15378.6" r="1292.24" fx="10731.56" fy="15378.6">
   <stop offset="0" style="stop-opacity:1; stop-color:#EAFFFF"/>
   <stop offset="0.309804" style="stop-opacity:1; stop-color:#B58FB5"/>
   <stop offset="1" style="stop-opacity:1; stop-color:#852F4D"/>
  </radialGradient>
  <radialGradient id="id10" gradientUnits="userSpaceOnUse" gradientTransform="matrix(1.37351 -0.407986 1.1412 0.491054 -18989 11510)" cx="12596.47" cy="12516.76" r="466.88" fx="12596.47" fy="12516.76">
   <stop offset="0" style="stop-opacity:1; stop-color:#EBECF1"/>
   <stop offset="0.2" style="stop-opacity:1; stop-color:#B5ADB6"/>
   <stop offset="1" style="stop-opacity:1; stop-color:#7F6E7B"/>
  </radialGradient>
  <radialGradient id="id11" gradientUnits="userSpaceOnUse" gradientTransform="matrix(1.37349 -0.485663 1.14117 0.584536 -16928 9434)" xlink:href="#id10" cx="9355.13" cy="11772.21" r="484.06" fx="9355.13" fy="11772.21">
  </radialGradient>
  <radialGradient id="id12" gradientUnits="userSpaceOnUse" gradientTransform="matrix(0.759997 -0 -0 0.442457 2037 6057)" cx="8486.66" cy="10864.53" r="893.35" fx="8486.66" fy="10864.53">
   <stop offset="0" style="stop-opacity:1; stop-color:#EAFFFF"/>
   <stop offset="0.231373" style="stop-opacity:1; stop-color:#7782C9"/>
   <stop offset="1" style="stop-opacity:1; stop-color:#191E6E"/>
  </radialGradient>
  <radialGradient id="id13" gradientUnits="userSpaceOnUse" gradientTransform="matrix(1.45258 -0 -0 0.698163 -5349 3572)" xlink:href="#id12" cx="11819.6" cy="11835.34" r="267.08" fx="11819.6" fy="11835.34">
  </radialGradient>
 </defs>
 <g id="Capa_x0020_1">
  <metadata id="CorelCorpID_0Corel-Layer"/>
  <ellipse class="fil0" cx="10519.26" cy="14555.91" rx="9809.04" ry="9063.56"/>
  <path class="fil1 str0" d="M8042.46 15937.22c2571.34,381.57 4887.78,725.29 6281.7,932.12 1379.24,-96.94 2424.89,700.79 3019.82,1459.42 214.54,430.15 315.3,1247.36 100.76,1830.74 -1458.89,1554.53 -3431.58,2620.64 -5647.01,2928.08 -1606.09,-798.48 -3329.06,-1429.97 -5092.66,-2003.43 680.92,-1519.71 1308.89,-3083.55 1337.39,-5146.93z"/>
  <path class="fil2" d="M13927.08 11890.4c-204.29,1062.33 -408.59,2124.67 -612.88,3187 -4745.66,4826.78 -1750.63,4060.83 -1470.93,5240.17 894.4,-1020.9 1668.3,-2098.96 2444.47,-3279.7l39.79 -60.53c319.71,-486.35 1324.76,205.48 1928.51,429.02 -1404.43,-836.4 1373.63,-5175.95 -1416.24,-9244.87 -336.37,-689.36 -772.56,-1358.77 -1341.74,-2001.57 -779.86,-836.28 -1894.01,-1226.86 -3646.66,-766.1 -2120.11,1071.96 -4255.14,2088.52 -4841.79,8856.19 -1001.05,1154.26 -2002.09,2308.53 -3003.14,3462.79l2.88 357.29c946.87,1796.36 2448.7,3254.51 4277.46,4146.57 804.81,-996.12 1203.49,-2037.08 1275.36,-3099.67l2.28 -56.53c214.51,-909.11 478.94,-1848.18 693.45,-2757.29 -694.97,-864.36 -1179.33,-2009.51 -1225.77,-3738.6 755.43,-2078.39 1457.92,-4269.32 3095.07,-4474.06 1020.37,483.73 1998.88,716.33 2911.2,551.6 629.79,549.04 800.77,1832.21 888.68,3248.29z"/>
  <path class="fil3" d="M13692.76 14169.03c147.55,-604.01 223.4,-1307.07 173.99,-1686.33 148.63,-435.48 310.22,-1237.22 31.81,-1671.77 284.61,-1345.13 -438.75,-2729.34 -1917.59,-2251.81 -267.87,-99.16 -715.1,-231.54 -1132.58,-673.42 -2255.24,-273.34 -2367.59,1227.29 -3367.1,2632.46 -693.14,1900.43 -883.7,2539.32 -404.02,3943.93 217.87,642.86 903.24,1662.54 1691.53,2246.82 410.37,334.38 823.99,604.61 1161.29,604.69 833,-109.72 1499.96,-433.84 2009.13,-833.7 843.95,-383.62 1432.79,-1234.18 1753.54,-2310.87z"/>
  <path class="fil4" d="M8398.1 10841.07c224.85,-265.55 552.39,-260.05 950.5,-127.08 335.98,112.22 688.75,247.14 1073.75,515.2 89.79,-42.87 127.97,-155.55 137.05,-319.5 -198.97,-266.51 -465.99,-236.97 -679.15,-361.2 -185.93,-127.91 -446.82,-248.03 -630.62,-325.15 -340.58,-87.07 -562.88,34.96 -904.85,374.07 -184,280.47 -103.17,288.55 53.32,243.66z"/>
  <path class="fil4 str1" d="M13293.81 11318.44c-511.17,-47.13 -982.04,-1.09 -1467.91,105.93 -128.05,72.01 -114.1,288.67 113.5,257.27 370.75,-50.78 741.5,-27.45 1112.27,22.7 282.29,63.1 573.73,118.42 446.43,529.65 50.44,-2.52 131.15,-80.7 181.59,-136.19 -5.01,-314.84 -36.08,-525.37 -385.88,-779.36z"/>
  <path class="fil5" d="M9136.36 11753.24c79.26,17.18 205.7,28.22 359.94,41.69 168.01,14.67 368.98,32.23 580.54,64.1 -119.68,-143.04 -242.2,-270.03 -368.74,-373.8 -137.47,-112.73 -279.76,-198.09 -428.44,-246.82 -275.2,-71.96 -445.4,-16.57 -607.66,36.25 -82.25,26.77 -162.54,52.91 -254.05,62.5 -13.83,1.45 -27.62,2.26 -41.48,2.47 27.43,7.67 54.73,14.66 81.71,20.77 3.42,0.77 6.43,2.38 8.88,4.56l0.02 -0.03c100.68,89.55 206.86,170.37 318.56,236.93 111.19,66.25 228.06,118.52 350.72,151.38zm-1259.53 -573.03c-6.03,-2.28 -12.11,-4.58 -18.27,-6.91 6,2.25 12.09,4.55 18.27,6.91zm0 0c158.72,60.49 375.73,154.09 576.97,199.64 202.96,180.54 428.7,326.17 677.91,392.83 174.94,38.04 569.3,45.82 993.95,114.13 -262.09,-321.04 -537.61,-568.4 -840.09,-667.47 -419.86,-110.13 -598.86,69.6 -869.65,97.98 -140.6,14.73 -279.89,-39.03 -539.09,-137.11z"/>
  <path class="fil6 str1" d="M9668.73 11441.76c-338.45,-202.73 -660.09,-297.61 -929.62,-58.1 34.19,240.41 484.7,276.91 1004.94,400.26 66.43,-108.96 57.73,-230.35 -75.32,-342.16z"/>
  <path class="fil7" d="M9033.34 11619.63c-110.81,-89.73 -129.01,-158.96 -79.33,-339.8 240.73,-80.9 406.76,-18.92 634.34,110.61 -0.63,182.5 -41.65,272.53 -150.72,311.86 -133.68,-30.27 -270.61,-52.4 -404.29,-82.67z"/>
  <path class="fil8" d="M9287.36 11316.3c48.51,0 87.83,40.78 87.83,91.08 0,50.3 -39.32,91.08 -87.83,91.08 -48.51,0 -87.83,-40.78 -87.83,-91.08 0,-50.3 39.32,-91.08 87.83,-91.08z"/>
  <path class="fil4 str1" d="M8745.57 11239.48c340.7,-85.46 588.28,-10.06 802.66,122.66 -251.78,-121.88 -701.28,-183.58 -813.42,19.37 -81.77,18.65 -170,2.86 -258.23,-12.91 103.24,-23.12 200.26,-68.64 268.99,-129.12z"/>
  <path class="fil5" d="M13609.87 12515.94c-123.9,49.18 -254.37,50.76 -398.24,-44.8 -105.28,-60.32 -666.7,23.2 -843.74,-62.91 -155.96,-105.68 -772.38,-159.79 -731.83,-184.99 341.62,-161.67 838.87,-210.75 1023.01,-170.26 83.7,7.29 522.9,286.06 573.99,380.43 46.54,78.53 220.39,88.9 376.81,82.53zm-1785.52 -268.55c184.89,31.36 452.69,76.78 553.02,143.25 92.7,44.5 300.16,41.1 486.11,38.05 160.51,-2.62 305.52,-5 358.07,25.11l-0.01 0.02c0.37,0.21 0.74,0.44 1.11,0.68 0.44,0.29 0.88,0.58 1.32,0.87 -2.96,-3.77 -5.67,-7.7 -8.1,-11.8l0.01 -0.01c-0.14,-0.23 -0.27,-0.46 -0.4,-0.7 -22.43,-41.43 -130.36,-124.45 -246.93,-201.71 -130.66,-86.6 -270.13,-164.68 -311.2,-168.25l0 -0.01c-0.83,-0.07 -1.66,-0.2 -2.5,-0.38 -98.51,-21.66 -289.8,-16.93 -498.55,17.81 -158.8,26.42 -327.19,70.23 -471.93,132.96 30.82,5.6 80.91,14.09 139.98,24.11z"/>
  <path class="fil9 str1" d="M12985.83 12229.93c-213.18,-193.42 -502.49,-265.36 -952.84,-125.65 -40.8,70.22 -28.32,123.76 21.97,188.28 420.43,78.23 280.77,195.11 885.32,136.64 41.91,-32.04 56.77,-98.9 45.55,-199.27z"/>
  <path class="fil10" d="M12857.73 12150.23c-201.58,-123.16 -423.77,-147.28 -663.29,-88.25 -51.2,107.35 -53.28,192.04 -3.16,252.63 34.91,-1.28 162.57,96.62 284.99,106.05 197.77,32.54 327.89,-52.46 381.46,-270.43z"/>
  <path class="fil11" d="M12575.9 12036.36c-75.9,-15.22 -153.45,-12.04 -229.36,-1.23 -36.94,68.95 -34.16,127.64 24.4,174.88 50.28,24.2 155.9,33.78 207.81,-17.9 27.63,-37.91 30.28,-87.47 -2.85,-155.75z"/>
  <path class="fil12 str1" d="M9214.24 15480.28c-399.64,-357.6 -504.87,-1160.69 -727.08,-1249.67 57.85,-30.85 238.54,-70.68 628.79,150.61 273.98,29.98 544.05,31.99 689.04,76.6 302.95,58.07 333.25,191.86 545.31,265.08 237.31,-42.92 398.89,-40.4 598.33,-15.15 363.54,50.49 590.75,199.44 939.14,143.9 -27.23,20.25 -31.52,101.25 -58.36,121.76 -272.81,283.78 -843.37,803.32 -1092.85,855.26 -585.11,101.72 -1066.06,-78.78 -1522.32,-348.39z"/>
  <path class="fil13 str2" d="M10094.8 15299.94c-1193.19,-201.76 -1015.54,-1001.86 -1602.83,-1059.72 124.92,-86.66 560.96,247.22 961.69,398.83 201.87,115.07 385.77,217.54 495.42,250.25 1030.92,217.74 1963.39,-102.26 1933.99,39.74 -277.99,2.45 -843.79,603.24 -1788.27,370.9z"/>
  <path class="fil14 str3" d="M9880.73 13117.27c-313.6,141.24 -200.94,607.48 136.33,621.04 147.13,-14.9 395.67,599.43 908.85,325.67 123.9,-70.2 207.91,-42.32 323.88,-29.02 205.87,23.61 357.22,-314.97 244.15,-645.04"/>
  <path class="fil15" d="M7117.29 12811.32c210.36,183.52 -43.77,254.82 614.43,558.86 185.11,85.51 78.6,2324.84 -268.29,1429.57 -158.24,-408.36 393.4,-769.94 -157.69,-1490.63 -55.9,-73.11 -145.62,-460.44 -188.45,-497.8z"/>
  <path class="fil16" d="M9911.61 13117.9c121.61,97.5 13.46,619.23 277.31,-46.55 109.25,-275.69 -325.31,-379.8 -524.08,29.03 -30.06,61.83 -1312.96,769.14 -1562.22,630.7 -318.16,-176.72 -416.85,142.83 -46.55,398.43 2.1,1.45 525.15,464.35 490.54,230.76 -13.87,-93.65 -472.88,-124.65 262.79,-189.71 25.79,-2.28 570.82,-839.23 840.93,-912.5 165.2,-44.81 26.95,-140.16 261.28,-140.16z"/>
  <path class="fil15" d="M11514.63 13442.01c154.1,570.9 317.81,540.51 289.07,1270.15 -4.44,112.81 212.77,-28.42 29.02,315.34 -93.23,174.42 644.38,103.93 794.38,39.55 97.47,-41.84 245.27,52.53 245.27,-179.7 -858.09,0 -528.41,-752.92 -1357.74,-1445.34z"/>
  <path class="fil17" d="M11514.63 13398.21c620.47,51.97 843.34,1243.87 1270.14,1243.87 0,153.09 -424.24,223.53 -477.53,-22.03 -24.29,-152.86 -707.18,-1236.67 -792.61,-1221.84z"/>
  <path class="fil18" d="M10629.9 16166.26c-225.37,-235.96 -1349.47,-453.76 -1572.22,-272.8 -6.72,5.46 485.61,-260.83 1077.18,-45.55 652.81,237.56 659.63,434.23 523.07,364.9 -48.43,-24.6 4.09,-12.93 -28.03,-46.55z"/>
  <path class="fil19" d="M12933.69 14817.27c333.28,-354.18 298.49,-60.56 599.9,-651.21 146.36,-286.8 -868.33,2480.83 -715.28,1194.31 21.7,-182.39 190.32,-302.93 115.38,-543.1z"/>
  <path class="fil20" d="M13555.62 12434.65c312.2,-312.21 485.64,-0.26 267.3,-963.56 -105.43,-465.14 4.32,-980.34 64.07,-262.79 11.25,135.13 167.04,106.55 105.11,668.74 -35.41,321.38 0.78,631.7 -134.14,978.07 -51.85,133.11 53.47,240.6 -245.27,-284.81 -41.04,-72.17 -108.91,-83.81 -57.07,-135.65z"/>
  <path class="fil21 str0" d="M6050.04 22096.87c325.77,-372.31 637.99,-764.96 938.72,-1174.83 1553.55,1108.33 3107.06,769.42 4660.61,-932.12 310.7,83.33 986.15,-623.66 1945.3,-1945.3 -288.6,1783.67 120.76,3123.19 776.67,4305.82 -1190.83,532.57 -2510.33,829.05 -3899.18,829.05 -1595.62,0 -3099.62,-391.41 -4422.12,-1082.62z"/>
  <path class="fil4 str1" d="M13186.52 12437.6c-63,-181.37 -435.29,-374.19 -670.12,-406.65 734.19,169.35 596.58,230.9 887.77,463.92 -64.25,14.06 -138.12,-10.24 -217.65,-57.27z"/>
  <path class="fil22" d="M12262.36 16609.2c209.75,119.83 1220.17,-1158.44 1593.51,-1386.88 179.89,-110.07 980.62,-865.05 980.62,-745.1 0,503.69 -295.82,1736.61 -429.02,2254.56 -767.28,168.42 -1826.95,-248.95 -2145.11,-122.58z"/>
  <path class="fil22" d="M12660.73 8350.53c-467.05,-83.92 -782.34,-342.13 -738.09,-873.36 63.1,-757.47 2523.73,749.64 2683.58,1128.58 157.68,373.79 592.55,853.4 595.38,1512.09 6.26,1456.34 92.7,947.72 -559.48,2262.43 -248.01,499.97 -230.17,1346.76 214.51,378.24 258.61,-563.26 -34.15,264.88 408.89,-247.78 352.84,-408.3 301.01,1004.32 605,-125.2 86.68,-322.09 -188.37,-630.9 65.92,-1283.76 -69.82,-790.06 -755.93,-2718.6 -1657.83,-3135.99 209.54,29.14 561.65,96.29 156.88,-266.22 -166.84,-111.14 -50.97,-288.06 -531.46,-492.94 12.16,-109.31 664.19,82.31 10.51,-319.58 -711.21,-437.25 -727.57,91.74 -605.02,-574.36 90.06,-489.49 -458.28,-57.45 -779.24,-490.31 -268.67,-362.34 -142.1,558.05 -372.98,-38.53 -44.11,-113.95 -507.83,-536.14 -507.83,89.31 0,-502.6 -927.29,-174.93 -620.77,-145.35 1002.98,96.79 -1052.18,222.27 -339.71,275.8 25.24,1.9 857.61,126.57 263.54,183.87 -1379.89,133.1 830.91,341.81 -253.03,429.02 -8.64,0.7 -1222.3,544.42 -1223.15,554.23 -35.39,406.25 -669.15,612.26 222.39,295.94 1416.75,-502.66 1066.64,487.43 1512.81,633.32 579.21,189.39 631.16,547.1 989.52,243.11 29.11,-10.8 394.35,-4.3 459.66,7.44z"/>
  <path class="fil23" d="M5489.95 13376.22c77.48,445.04 -844.73,1528.49 -1368.5,2029.97 -490.14,799.28 -1064.81,1166.48 -1524.34,1731.85 -58.67,101.18 -444.32,584.39 -569.41,890.11 41.09,78.44 73.29,166.19 116.47,243.33 92.56,-15.13 209.51,-56.27 403.91,-155.45 4.57,-2.33 1397.63,-278.17 1111.08,58.66 -186.44,219.16 -263.6,1099.51 -436.9,1223.15 -41.58,200.94 468.82,-470.55 712,-670.04 -172.57,629.7 -2.5,782.73 13.76,1182.81 303.27,-98.52 967.12,-7.16 1605.84,-137.16 417.5,58.59 411.76,-150.4 265.29,-781.87 -330.8,-1426.17 -911.45,-852.44 -911.45,-3171.25 0,-978.47 971.75,-911.88 891.32,-2395.52 -47.94,-884.2 -308.21,-52.44 -309.07,-48.59z"/>
  <path class="fil24" d="M6041.55 14586.67c-260.59,1168.68 -818.62,902.96 122.57,2556.62 480.61,844.42 24.63,2050.13 69.17,1981.38 593.12,-915.54 155.22,-1939.33 658.42,-1808.02 370.74,844.51 -849.06,2554.89 -479.81,2630.16 501.1,102.15 839.41,70.14 919.34,-579.61 81.76,-664.67 -7.73,-1932.63 -303.82,-2512.84 -216.69,-424.61 -520.2,-1611.34 -893.94,-2114.47 -61.53,-82.83 -103.09,-103.19 -91.93,-153.22z"/>
  <path class="fil25 str1" d="M12793.11 11570.09c303.74,43.19 739.64,143.28 905.73,365.64 178.94,239.56 125.12,592.46 -89.01,898.94 -594.91,851.54 -1518.63,852.29 -1999.25,66.62 -86.93,-142.1 -124.97,-201.79 -169.78,-385.13 -237.35,-971.19 540.67,-1061.46 1352.31,-946.07zm-4215.3 -1079.18c538.1,80.02 1490.48,439.89 1774.33,898.04 166.52,268.79 48.88,577.33 -177.52,826.7 -728.64,802.54 -2015.23,350.11 -2325.96,-473.27 -94.98,-251.68 -168.48,-589.02 -40.55,-913.47 134.37,-340.78 392.84,-394.04 769.7,-338zm-981.41 -256.06l-96.01 362.86c185.05,206.14 121.9,271.79 136.27,583.42 27.66,599.9 287.49,1175.47 942.33,1437.12 813.73,325.15 1389.93,-60.19 1828.44,-493.98 145.8,-144.22 281.39,-292.02 564.1,-221.08 406.78,102.08 278.4,515.97 511.78,990.65 389.51,792.25 1585.77,1074.19 2305.13,-157.04 55.76,-95.44 97.93,-205.61 158.1,-294.14 117.68,-173.13 174.25,-113.95 243.9,-192.06l77.67 -315.28c-3.81,-57.53 -74.07,-64.25 -192.42,-106.32 -78.72,-27.97 -153.04,-53.56 -233.14,-80.09 -2143.15,-709.84 -2061.43,50.39 -2786.21,-102.89 -480.91,-101.69 -709.9,-537.14 -1491.37,-940.41 -464.93,-239.91 -1426.73,-450.78 -1968.57,-470.76z"/>
  <path class="fil26" d="M12793.11 11570.09c303.74,43.19 739.64,143.28 905.73,365.64 178.94,239.56 125.12,592.46 -89.01,898.94 -594.91,851.54 -1518.63,852.29 -1999.25,66.62 -86.93,-142.1 -124.97,-201.79 -169.78,-385.13 -237.35,-971.19 540.67,-1061.46 1352.31,-946.07zm-4215.3 -1079.18c538.1,80.02 1490.48,439.89 1774.33,898.04 166.52,268.79 48.88,577.33 -177.52,826.7 -728.64,802.54 -2015.23,350.11 -2325.96,-473.27 -94.98,-251.68 -168.48,-589.02 -40.55,-913.47 134.37,-340.78 392.84,-394.04 769.7,-338zm-981.41 -256.06l-96.01 362.86c185.05,206.14 121.9,271.79 136.27,583.42 27.66,599.9 287.49,1175.47 942.33,1437.12 813.73,325.15 1389.93,-60.19 1828.44,-493.98 145.8,-144.22 281.39,-292.02 564.1,-221.08 406.78,102.08 278.4,515.97 511.78,990.65 389.51,792.25 1585.77,1074.19 2305.13,-157.04 55.76,-95.44 97.93,-205.61 158.1,-294.14 117.68,-173.13 174.25,-113.95 243.9,-192.06l77.67 -315.28c-3.81,-57.53 -74.07,-64.25 -192.42,-106.32 -78.72,-27.97 -153.04,-53.56 -233.14,-80.09 -2143.15,-709.84 -2061.43,50.39 -2786.21,-102.89 -480.91,-101.69 -709.9,-537.14 -1491.37,-940.41 -464.93,-239.91 -1426.73,-450.78 -1968.57,-470.76z"/>
  <path class="fil27 str4" d="M12793.11 11570.09c303.74,43.19 739.64,143.28 905.73,365.64 178.94,239.56 125.12,592.46 -89.01,898.94 -594.91,851.54 -1518.63,852.29 -1999.25,66.62 -86.93,-142.1 -124.97,-201.79 -169.78,-385.13 -237.35,-971.19 540.67,-1061.46 1352.31,-946.07zm-4215.3 -1079.18c538.1,80.02 1490.48,439.89 1774.33,898.04 166.52,268.79 48.88,577.33 -177.52,826.7 -728.64,802.54 -2015.23,350.11 -2325.96,-473.27 -94.98,-251.68 -168.48,-589.02 -40.55,-913.47 134.37,-340.78 392.84,-394.04 769.7,-338zm-981.41 -256.06l-96.01 362.86c185.05,206.14 121.9,271.79 136.27,583.42 27.66,599.9 287.49,1175.47 942.33,1437.12 813.73,325.15 1389.93,-60.19 1828.44,-493.98 145.8,-144.22 281.39,-292.02 564.1,-221.08 406.78,102.08 278.4,515.97 511.78,990.65 389.51,792.25 1585.77,1074.19 2305.13,-157.04 55.76,-95.44 97.93,-205.61 158.1,-294.14 117.68,-173.13 174.25,-113.95 243.9,-192.06l77.67 -315.28c-3.81,-57.53 -74.07,-64.25 -192.42,-106.32 -78.72,-27.97 -153.04,-53.56 -233.14,-80.09 -2143.15,-709.84 -2061.43,50.39 -2786.21,-102.89 -480.91,-101.69 -709.9,-537.14 -1491.37,-940.41 -464.93,-239.91 -1426.73,-450.78 -1968.57,-470.76z"/>
  <path class="fil28" d="M7861.31 10804.31c41.96,-23.25 1479.01,-145.77 1598.76,27.78 205.44,297.73 419.71,343.31 -397.5,237.81 -1332.72,-172.05 -1150.26,701.98 -1191.75,-222.53l-9.51 -43.06z"/>
  <path class="fil29" d="M11497.16 12013.33c-27.61,-538.24 2726.13,-383.11 788.5,-126.92 -895.59,118.42 -788.5,825.14 -788.5,170.72 0,-20.86 0.11,-41.73 0,-43.8z"/>
  <path class="fil22" d="M12781.3 17049.53c-910.71,13.25 -1260.26,684.59 -1590.93,1270.08 -202.67,358.85 62.18,2176.8 1111.26,924.09 100,-119.41 1559.96,-2361.33 1737.25,-2420.64 247.88,-82.94 -827.63,286.61 -1257.58,226.47z"/>
  <path class="fil30" d="M12921.03 19226.53c-242.32,974.13 -19.32,2184.13 -319.24,2911.13 -56.9,137.93 -37.86,493.16 -35.72,693.98 -25.28,1.19 -41.05,22.35 -69.17,13.76 -26.05,-85.78 -61.54,-218.42 -109.6,-410.67 -273.25,-1092.92 533.73,-2265.97 533.73,-3208.2z"/>
  <path class="fil30" d="M13132.5 19455.63c-79.96,608.79 135.75,2321.07 494.16,3013.23 28.98,78.48 75.22,60.42 44.76,-3.44 -52.2,-207.96 -161.19,-593.63 -209.64,-859.85 -69.92,-383.63 -277.73,-1067.17 -329.28,-2149.94z"/>
  <path class="fil30" d="M6946.99 21270.75c119.8,411.88 107.75,772.92 60.59,1165.2 439.43,167.23 841.88,288.21 1220.19,379.05 139.01,-638.25 234.4,-1320.71 -590.48,-1347.38 -111.66,-3.61 -428.26,-245.26 -677.21,-292.53l-13.09 95.66z"/>
  <path class="fil31 str5" d="M7777.03 21816.08c211.11,32.93 350.43,263.68 311.18,515.39 -39.25,251.71 -242.22,429.08 -453.34,396.15 -211.11,-32.92 -350.43,-263.67 -311.18,-515.38 39.25,-251.71 242.22,-429.08 453.34,-396.16z"/>
  <path class="fil30" d="M9032 21747.53c727.46,-279.85 -930.98,2025.65 387.7,900.19 1988.52,-1726.78 -152.06,-579.83 -443.09,-841.78l55.39 -58.41z"/>
  <path class="fil30" d="M11070.66 21165.01c-699.83,1153.61 -394.04,819.13 -1198.57,1882.25 77.98,32.61 147.71,27 202.05,11.12 324.43,-189.15 892.31,-769.73 996.52,-1893.37z"/>
  <ellipse class="fil14 str1" cx="7636.76" cy="22161.33" rx="18.94" ry="22.73"/>
  <ellipse class="fil14 str1" cx="7735.25" cy="22365.88" rx="18.94" ry="22.73"/>
  <ellipse class="fil14 str1" cx="7606.46" cy="22343.16" rx="18.94" ry="22.73"/>
  <ellipse class="fil14 str1" cx="7757.98" cy="22184.06" rx="18.94" ry="22.73"/>
  <path class="fil32" d="M10012.07 12016.98c-669.61,377.08 -1270.94,355.99 -1728.78,-502.28 517.97,315.89 1087.69,500.01 1728.78,502.28z"/>
  <path class="fil33" d="M13230.1 12665.42c-414,271.89 -931.95,478.85 -1667.44,-357.31 555.81,326.64 1111.62,383.92 1667.44,357.31z"/>
 </g>
</svg>
