<?xml version="1.0" encoding="UTF-8"?>
<!DOCTYPE svg PUBLIC "-//W3C//DTD SVG 1.1//EN" "http://www.w3.org/Graphics/SVG/1.1/DTD/svg11.dtd">
<!-- Creator: CorelDRAW 2021 (64-Bit) -->
<svg xmlns="http://www.w3.org/2000/svg" xml:space="preserve" width="131px" height="144px" version="1.1" style="shape-rendering:geometricPrecision; text-rendering:geometricPrecision; image-rendering:optimizeQuality; fill-rule:evenodd; clip-rule:evenodd"
viewBox="0 0 34.71 38.02"
 xmlns:xlink="http://www.w3.org/1999/xlink"
 xmlns:xodm="http://www.corel.com/coreldraw/odm/2003">
 <defs>
  <style type="text/css">
   <![CDATA[
    .fil0 {fill:#622074;fill-rule:nonzero}
   ]]>
  </style>
 </defs>
 <g id="Capa_x0020_1">
  <metadata id="CorelCorpID_0Corel-Layer"/>
  <path class="fil0" d="M17.36 0c-0.59,0 -1.19,0.15 -1.71,0.45l-13.92 7.82c-1.07,0.6 -1.73,1.72 -1.73,2.92l0 15.64c0,1.2 0.66,2.32 1.73,2.92l13.92 7.82c0.52,0.3 1.12,0.45 1.71,0.45 0.59,0 1.18,-0.15 1.7,-0.45l13.93 -7.82c1.06,-0.6 1.72,-1.72 1.72,-2.92l0 -15.64c0,-1.2 -0.66,-2.32 -1.72,-2.92l-13.93 -7.82c-0.52,-0.3 -1.11,-0.45 -1.7,-0.45zm0 9.09c3.12,0 6.01,1.45 7.88,3.92l-3.62 2.1c-1.09,-1.2 -2.63,-1.89 -4.26,-1.89 -3.19,0 -5.79,2.6 -5.79,5.79 0,3.19 2.6,5.78 5.79,5.78 1.63,0 3.17,-0.69 4.26,-1.88l3.62 2.1c-1.87,2.47 -4.76,3.92 -7.88,3.92 -5.47,0 -9.92,-4.45 -9.92,-9.92 0,-5.47 4.45,-9.92 9.92,-9.92zm8.26 5.79l1.65 0 0 1.65 1.66 0 0 -1.65 1.65 0 0 1.65 1.65 0 0 1.65 -1.65 0 0 1.66 1.65 0 0 1.65 -1.65 0 0 1.65 -1.65 0 0 -1.65 -1.66 0 0 1.65 -1.65 0 0 -1.65 -1.65 0 0 -1.65 1.65 0 0 -1.66 -1.65 0 0 -1.65 1.65 0 0 -1.65zm1.65 3.3l0 1.66 1.66 0 0 -1.66 -1.66 0z"/>
 </g>
</svg>
