<?xml version="1.0" encoding="UTF-8"?>
<!DOCTYPE svg PUBLIC "-//W3C//DTD SVG 1.1//EN" "http://www.w3.org/Graphics/SVG/1.1/DTD/svg11.dtd">
<!-- Creator: CorelDRAW 2021 (64-Bit) -->
<svg xmlns="http://www.w3.org/2000/svg" xml:space="preserve" width="131px" height="144px" version="1.1" style="shape-rendering:geometricPrecision; text-rendering:geometricPrecision; image-rendering:optimizeQuality; fill-rule:evenodd; clip-rule:evenodd"
viewBox="0 0 20.67 22.64"
 xmlns:xlink="http://www.w3.org/1999/xlink"
 xmlns:xodm="http://www.corel.com/coreldraw/odm/2003">
 <defs>
  <style type="text/css">
   <![CDATA[
    .fil0 {fill:#5BE9B9;fill-rule:nonzero}
   ]]>
  </style>
 </defs>
 <g id="Capa_x0020_1">
  <metadata id="CorelCorpID_0Corel-Layer"/>
  <path class="fil0" d="M10.34 0c-0.36,0 -0.71,0.09 -1.02,0.27l-8.29 4.65c-0.64,0.36 -1.03,1.03 -1.03,1.74l0 9.32c0,0.71 0.39,1.38 1.03,1.74l8.29 4.66c0.31,0.17 0.66,0.26 1.02,0.26 0.35,0 0.7,-0.09 1.01,-0.26l8.29 -4.66c0.64,-0.36 1.03,-1.03 1.03,-1.74l0 -9.32c0,-0.71 -0.39,-1.38 -1.03,-1.74l-8.29 -4.65c-0.31,-0.18 -0.66,-0.27 -1.01,-0.27zm0 5.41c1.86,0 3.58,0.87 4.69,2.34l-2.15 1.25c-0.65,-0.71 -1.57,-1.12 -2.54,-1.12 -1.9,0 -3.45,1.54 -3.45,3.44 0,1.9 1.55,3.45 3.45,3.45 0.97,0 1.89,-0.42 2.54,-1.13l2.15 1.25c-1.11,1.47 -2.83,2.34 -4.69,2.34 -3.26,0 -5.91,-2.65 -5.91,-5.91 0,-3.26 2.65,-5.91 5.91,-5.91zm4.92 3.45l0.98 0 0 0.98 0.99 0 0 -0.98 0.98 0 0 0.98 0.99 0 0 0.99 -0.99 0 0 0.98 0.99 0 0 0.99 -0.99 0 0 0.98 -0.98 0 0 -0.98 -0.99 0 0 0.98 -0.98 0 0 -0.98 -0.99 0 0 -0.99 0.99 0 0 -0.98 -0.99 0 0 -0.99 0.99 0 0 -0.98zm0.98 1.97l0 0.98 0.99 0 0 -0.98 -0.99 0z"/>
 </g>
</svg>
