<?xml version="1.0" encoding="UTF-8"?>
<!DOCTYPE svg PUBLIC "-//W3C//DTD SVG 1.1//EN" "http://www.w3.org/Graphics/SVG/1.1/DTD/svg11.dtd">
<!-- Creator: CorelDRAW 2021 (64-Bit) -->
<svg xmlns="http://www.w3.org/2000/svg" xml:space="preserve" width="131px" height="129px" version="1.1" style="shape-rendering:geometricPrecision; text-rendering:geometricPrecision; image-rendering:optimizeQuality; fill-rule:evenodd; clip-rule:evenodd"
viewBox="0 0 17.03 16.82"
 xmlns:xlink="http://www.w3.org/1999/xlink"
 xmlns:xodm="http://www.corel.com/coreldraw/odm/2003">
 <defs>
  <style type="text/css">
   <![CDATA[
    .fil0 {fill:#80B3FF}
    .fil1 {fill:#8CD35E}
    .fil3 {fill:#FF8080}
    .fil2 {fill:#FFE680}
   ]]>
  </style>
 </defs>
 <g id="Capa_x0020_1">
  <metadata id="CorelCorpID_0Corel-Layer"/>
  <g id="_3068473442352">
   <path class="fil0" d="M0.35 9.36c0.11,0.08 0.12,0.08 0.19,0.2l2.91 2.86 0.33 0.31 0.35 -0.35 3.47 -3.77c0.07,-0.34 -0.05,-0.64 -0.23,-0.89 -0.17,-0.25 -2.04,-2.07 -2.31,-2.34 -0.24,-0.24 -0.96,-1.03 -1.18,-1.15l-2.35 2.35c-1.24,1.24 -2.01,1.62 -1.18,2.78z"/>
   <path class="fil1" d="M10.84 6.47c0.05,0.23 0.49,0.48 0.62,0.71l0.28 0.23 0.58 -0.04c0.62,0.06 1.09,0.52 1.12,1.17 0.02,0.79 -0.49,1.28 -1.21,1.35 -0.77,-0.03 -1.29,-0.48 -1.31,-1.25l0.07 -0.44 -0.24 -0.27c-0.08,0.02 -0.06,0.03 -0.04,-0.05 -0.16,-0.09 -0.51,-0.57 -0.7,-0.58 -0.05,0.13 -0.16,0.21 -0.26,0.32 -0.09,0.08 -0.2,0.18 -0.27,0.26 -0.33,0.87 -0.08,1.09 0.39,1.56l3.42 3.41c0.65,-0.57 3.13,-3.2 3.54,-3.53 0.54,-1.51 -0.03,-1.43 -1.34,-2.83l-2.29 -2.31c-0.33,0.17 -2,2.08 -2.36,2.29z"/>
   <path class="fil2" d="M7.06 10.07l-2.9 2.93 0.05 0.12 0.57 0.58 0.16 0.15 2.19 2.16c0.52,0.44 0.58,0.76 0.97,0.78 1.09,0.04 1.08,0.07 1.45,-0.3l2.79 -2.74c0.11,-0.17 0.21,-0.22 0.33,-0.35 0.08,-0.1 0.05,-0.05 0.11,-0.15 -0.09,-0.14 -0.12,-0.13 -0.2,-0.27 -0.18,-0.09 -0.64,-0.61 -0.84,-0.8l-2.45 -2.49c-0.14,0.12 -0.05,-0.04 -0.09,0.21 0,0.01 0.01,0.2 0.01,0.22l0 0.67c0,0.34 -0.06,0.27 0.14,0.43 0.14,0.12 0.18,0.14 0.27,0.31 0.1,0.18 0.29,0.64 0.12,0.88 -0.02,0.3 -0.22,0.54 -0.42,0.7 -0.15,0.11 -0.56,0.31 -0.77,0.23 -0.65,0 -1.1,-0.47 -1.17,-1.06 0,-1 0.6,-1.04 0.65,-1.26l-0.02 -1.65 -0.2 -0.02c-0.12,0.19 -0.57,0.62 -0.75,0.72z"/>
   <path class="fil3" d="M7.09 2.82l0.72 0.73 0.29 0.29 0.59 -0.05c0.66,0.04 1.12,0.58 1.16,1.21 0,0.16 -0.06,0.35 -0.05,0.44 0.02,0.16 0.1,0.15 0.2,0.29l0.52 0.5c0.15,-0.05 0.09,-0.04 0.2,-0.11l2.14 -2.18c-0.34,-0.29 -3.47,-3.41 -3.58,-3.61 -0.16,-0.08 -0.18,-0.17 -0.41,-0.26 -0.17,-0.07 -0.4,-0.09 -0.6,-0.04 -0.5,0.12 -1.41,1.33 -2.07,1.87l0.89 0.92z"/>
   <path class="fil3" d="M7.79 7.58c0.12,0.07 0.11,0.08 0.23,0.15l0 -1.57c-0.4,-0.18 -0.69,-0.56 -0.69,-1.16l0.05 -0.44 -0.22 -0.24c-0.49,-0.49 -0.97,-0.97 -1.46,-1.46l-0.11 -0.11c-0.07,-0.04 -0.07,-0.04 -0.17,-0.07 -0.28,0.34 -1.02,0.93 -1.21,1.26 0.21,0.36 3.39,3.33 3.58,3.64z"/>
   <path class="fil3" d="M9.23 7.57l0.04 0 0.39 -0.39c0.06,-0.1 0.08,-0.09 0.14,-0.2l-0.46 -0.48c-0.08,-0.04 -0.07,-0.03 -0.18,-0.05l0.01 0.06c0.13,0.24 0.01,0.75 0.06,1.06z"/>
  </g>
 </g>
</svg>
