<?xml version="1.0" encoding="UTF-8"?>
<!DOCTYPE svg PUBLIC "-//W3C//DTD SVG 1.1//EN" "http://www.w3.org/Graphics/SVG/1.1/DTD/svg11.dtd">
<!-- Creator: CorelDRAW 2021 (64-Bit) -->
<svg xmlns="http://www.w3.org/2000/svg" xml:space="preserve" width="131px" height="129px" version="1.1" style="shape-rendering:geometricPrecision; text-rendering:geometricPrecision; image-rendering:optimizeQuality; fill-rule:evenodd; clip-rule:evenodd"
viewBox="0 0 13.32 13.15"
 xmlns:xlink="http://www.w3.org/1999/xlink"
 xmlns:xodm="http://www.corel.com/coreldraw/odm/2003">
 <defs>
  <style type="text/css">
   <![CDATA[
    .fil0 {fill:#5BE9B9}
   ]]>
  </style>
 </defs>
 <g id="Capa_x0020_1">
  <metadata id="CorelCorpID_0Corel-Layer"/>
  <g id="_3068239241392">
   <path class="fil0" d="M0.27 7.32c0.09,0.06 0.1,0.06 0.15,0.16l2.28 2.23 0.26 0.24 0.27 -0.27 2.71 -2.95c0.05,-0.26 -0.03,-0.5 -0.17,-0.69 -0.14,-0.2 -1.6,-1.62 -1.81,-1.83 -0.19,-0.19 -0.75,-0.81 -0.93,-0.9l-1.83 1.83c-0.98,0.98 -1.58,1.27 -0.93,2.18z"/>
   <path class="fil0" d="M8.48 5.06c0.04,0.18 0.38,0.37 0.48,0.55l0.22 0.19 0.46 -0.03c0.48,0.04 0.84,0.4 0.87,0.91 0.01,0.62 -0.39,1 -0.95,1.06 -0.6,-0.03 -1.01,-0.38 -1.02,-0.98l0.05 -0.35 -0.18 -0.21c-0.06,0.02 -0.05,0.03 -0.04,-0.03 -0.12,-0.08 -0.39,-0.46 -0.54,-0.46 -0.04,0.1 -0.12,0.16 -0.21,0.25 -0.06,0.06 -0.15,0.14 -0.2,0.2 -0.26,0.68 -0.07,0.86 0.3,1.22l2.67 2.67c0.51,-0.44 2.45,-2.51 2.77,-2.76 0.42,-1.18 -0.03,-1.12 -1.04,-2.22l-1.8 -1.8c-0.26,0.13 -1.56,1.62 -1.84,1.79z"/>
   <path class="fil0" d="M5.52 7.88l-2.27 2.28 0.04 0.1 0.45 0.45 0.12 0.12 1.72 1.69c0.4,0.34 0.45,0.6 0.75,0.61 0.86,0.03 0.85,0.06 1.14,-0.24l2.18 -2.14c0.08,-0.13 0.16,-0.17 0.25,-0.27 0.07,-0.08 0.04,-0.04 0.09,-0.12 -0.06,-0.11 -0.09,-0.1 -0.15,-0.21 -0.14,-0.07 -0.5,-0.48 -0.66,-0.63l-1.91 -1.94c-0.11,0.09 -0.05,-0.04 -0.07,0.16 -0.01,0.01 0,0.16 0,0.18l0 0.52c0,0.26 -0.04,0.21 0.11,0.34 0.11,0.09 0.14,0.1 0.22,0.24 0.07,0.14 0.22,0.5 0.09,0.68 -0.02,0.24 -0.17,0.43 -0.33,0.55 -0.12,0.09 -0.44,0.25 -0.6,0.18 -0.51,0 -0.86,-0.36 -0.92,-0.83 0,-0.78 0.47,-0.81 0.51,-0.99l-0.02 -1.29 -0.15 -0.01c-0.1,0.15 -0.45,0.49 -0.59,0.57z"/>
   <path class="fil0" d="M5.54 2.21l0.57 0.56 0.23 0.23 0.45 -0.04c0.52,0.04 0.88,0.45 0.91,0.95 0,0.13 -0.04,0.27 -0.04,0.34 0.02,0.13 0.08,0.12 0.16,0.23l0.41 0.39c0.11,-0.04 0.07,-0.03 0.15,-0.09l1.68 -1.7c-0.27,-0.23 -2.72,-2.66 -2.81,-2.82 -0.12,-0.06 -0.14,-0.14 -0.31,-0.21 -0.14,-0.05 -0.32,-0.07 -0.47,-0.03 -0.4,0.1 -1.11,1.04 -1.62,1.47l0.69 0.72z"/>
   <path class="fil0" d="M6.09 5.93c0.09,0.05 0.08,0.06 0.18,0.11l0 -1.22c-0.31,-0.15 -0.54,-0.44 -0.54,-0.91l0.04 -0.34 -0.17 -0.2c-0.38,-0.37 -0.76,-0.75 -1.14,-1.13l-0.09 -0.09c-0.05,-0.03 -0.05,-0.03 -0.13,-0.06 -0.22,0.27 -0.8,0.74 -0.95,0.99 0.17,0.29 2.65,2.6 2.8,2.85z"/>
   <path class="fil0" d="M7.22 5.92l0.03 0 0.3 -0.3c0.05,-0.08 0.07,-0.08 0.11,-0.16l-0.36 -0.38c-0.06,-0.03 -0.05,-0.02 -0.14,-0.04l0.01 0.05c0.1,0.19 0.01,0.59 0.05,0.83z"/>
  </g>
 </g>
</svg>
