<?xml version="1.0" encoding="UTF-8"?>
<!DOCTYPE svg PUBLIC "-//W3C//DTD SVG 1.1//EN" "http://www.w3.org/Graphics/SVG/1.1/DTD/svg11.dtd">
<!-- Creator: CorelDRAW 2021 (64-Bit) -->
<svg xmlns="http://www.w3.org/2000/svg" xml:space="preserve" width="114px" height="131px" version="1.1" style="shape-rendering:geometricPrecision; text-rendering:geometricPrecision; image-rendering:optimizeQuality; fill-rule:evenodd; clip-rule:evenodd"
viewBox="0 0 7.74 8.93"
 xmlns:xlink="http://www.w3.org/1999/xlink"
 xmlns:xodm="http://www.corel.com/coreldraw/odm/2003">
 <defs>
  <style type="text/css">
   <![CDATA[
    .fil0 {fill:#FF4081;fill-rule:nonzero}
   ]]>
  </style>
 </defs>
 <g id="Capa_x0020_1">
  <metadata id="CorelCorpID_0Corel-Layer"/>
  <g id="_3068237413504">
   <path class="fil0" d="M3.87 8.56l-3.47 -2.05 0 -4.09 3.47 -2.06 3.47 2.06 0 4.09 -3.47 2.05zm-3.08 -2.27l3.08 1.81 3.07 -1.81 0 -3.65 -3.07 -1.81 -3.08 1.81 0 3.65z"/>
   <circle class="fil0" cx="3.87" cy="0.69" r="0.69"/>
   <circle class="fil0" cx="3.87" cy="8.23" r="0.69"/>
   <circle class="fil0" cx="0.69" cy="6.25" r="0.69"/>
   <circle class="fil0" cx="7.04" cy="6.25" r="0.69"/>
   <circle class="fil0" cx="0.69" cy="2.68" r="0.69"/>
   <circle class="fil0" cx="7.04" cy="2.68" r="0.69"/>
   <path class="fil0" d="M7.48 6.55l-7.23 0 3.62 -6.36 3.61 6.36zm-6.54 -0.4l5.86 0 -2.93 -5.15 -2.93 5.15z"/>
  </g>
 </g>
</svg>
