<?xml version="1.0" encoding="UTF-8"?>
<!DOCTYPE svg PUBLIC "-//W3C//DTD SVG 1.1//EN" "http://www.w3.org/Graphics/SVG/1.1/DTD/svg11.dtd">
<!-- Creator: CorelDRAW 2021 (64-Bit) -->
<svg xmlns="http://www.w3.org/2000/svg" xml:space="preserve" width="131px" height="131px" version="1.1" style="shape-rendering:geometricPrecision; text-rendering:geometricPrecision; image-rendering:optimizeQuality; fill-rule:evenodd; clip-rule:evenodd"
viewBox="0 0 10.71 10.71"
 xmlns:xlink="http://www.w3.org/1999/xlink"
 xmlns:xodm="http://www.corel.com/coreldraw/odm/2003">
 <defs>
  <style type="text/css">
   <![CDATA[
    .str0 {stroke:black;stroke-width:0.19;stroke-miterlimit:22.9256}
    .fil0 {fill:black}
    .fil1 {fill:#FFDF00;fill-rule:nonzero}
   ]]>
  </style>
 </defs>
 <g id="Capa_x0020_1">
  <metadata id="CorelCorpID_0Corel-Layer"/>
  <g id="_3068232251712">
   <path class="fil0 str0" d="M5.87 8.21c0,1.02 -0.6,1.48 -1.47,1.48 -0.79,0 -1.36,-0.53 -1.59,-1.02l0.8 -0.48c0.15,0.27 0.39,0.48 0.73,0.48 0.32,0 0.51,-0.12 0.51,-0.62l0 -3.2 1.02 0 0 3.36zm2.21 1.48c-0.9,0 -1.42,-0.45 -1.7,-1.02l0.76 -0.51c0.21,0.34 0.44,0.67 0.92,0.67 0.4,0 0.61,-0.2 0.61,-0.48 0,-0.33 -0.22,-0.45 -0.66,-0.65l-0.24 -0.1c-0.71,-0.3 -1.17,-0.68 -1.17,-1.47 0,-0.73 0.55,-1.28 1.42,-1.28 0.62,0 1.07,0.21 1.39,0.78l-0.76 0.48c-0.17,-0.3 -0.35,-0.41 -0.63,-0.41 -0.28,0 -0.46,0.18 -0.46,0.41 0,0.29 0.18,0.41 0.6,0.59l0.24 0.11c0.83,0.35 1.29,0.71 1.29,1.53 0,0.87 -0.69,1.35 -1.61,1.35z"/>
   <path class="fil1" d="M10.03 0l-9.35 0c-0.38,0 -0.68,0.3 -0.68,0.68l0 9.35c0,0.38 0.3,0.68 0.68,0.68l9.35 0c0.38,0 0.68,-0.3 0.68,-0.68l0 -9.35c0,-0.38 -0.3,-0.68 -0.68,-0.68zm-4.16 8.21c0,1.02 -0.6,1.48 -1.47,1.48 -0.79,0 -1.36,-0.53 -1.59,-1.02l0.8 -0.48c0.15,0.27 0.39,0.48 0.73,0.48 0.32,0 0.51,-0.12 0.51,-0.62l0 -3.2 1.02 0 0 3.36zm2.21 1.48c-0.9,0 -1.42,-0.45 -1.7,-1.02l0.76 -0.51c0.21,0.34 0.44,0.67 0.92,0.67 0.4,0 0.61,-0.2 0.61,-0.48 0,-0.33 -0.22,-0.45 -0.66,-0.65l-0.24 -0.1c-0.71,-0.3 -1.17,-0.68 -1.17,-1.47 0,-0.73 0.55,-1.28 1.42,-1.28 0.62,0 1.07,0.21 1.39,0.78l-0.76 0.48c-0.17,-0.3 -0.35,-0.41 -0.63,-0.41 -0.28,0 -0.46,0.18 -0.46,0.41 0,0.29 0.18,0.41 0.6,0.59l0.24 0.11c0.83,0.35 1.29,0.71 1.29,1.53 0,0.87 -0.69,1.35 -1.61,1.35z"/>
  </g>
 </g>
</svg>
