<?xml version="1.0" encoding="UTF-8"?>
<!DOCTYPE svg PUBLIC "-//W3C//DTD SVG 1.1//EN" "http://www.w3.org/Graphics/SVG/1.1/DTD/svg11.dtd">
<!-- Creator: CorelDRAW 2021 (64-Bit) -->
<svg xmlns="http://www.w3.org/2000/svg" xml:space="preserve" width="131px" height="131px" version="1.1" style="shape-rendering:geometricPrecision; text-rendering:geometricPrecision; image-rendering:optimizeQuality; fill-rule:evenodd; clip-rule:evenodd"
viewBox="0 0 9.11 9.11"
 xmlns:xlink="http://www.w3.org/1999/xlink"
 xmlns:xodm="http://www.corel.com/coreldraw/odm/2003">
 <defs>
  <style type="text/css">
   <![CDATA[
    .str0 {stroke:black;stroke-width:0.16;stroke-miterlimit:22.9256}
    .fil0 {fill:black}
    .fil1 {fill:#5BE9B9;fill-rule:nonzero}
   ]]>
  </style>
 </defs>
 <g id="Capa_x0020_1">
  <metadata id="CorelCorpID_0Corel-Layer"/>
  <g id="_3068230809120">
   <path class="fil0 str0" d="M4.99 6.98c0,0.87 -0.51,1.26 -1.25,1.26 -0.67,0 -1.16,-0.45 -1.35,-0.86l0.68 -0.42c0.13,0.24 0.33,0.42 0.62,0.42 0.27,0 0.43,-0.11 0.43,-0.53l0 -2.73 0.87 0 0 2.86zm1.88 1.26c-0.77,0 -1.2,-0.38 -1.45,-0.86l0.65 -0.44c0.18,0.29 0.37,0.57 0.78,0.57 0.35,0 0.53,-0.17 0.53,-0.41 0,-0.28 -0.19,-0.38 -0.57,-0.55l-0.2 -0.09c-0.6,-0.25 -1,-0.57 -1,-1.24 0,-0.63 0.47,-1.1 1.21,-1.1 0.53,0 0.91,0.19 1.18,0.66l-0.64 0.42c-0.15,-0.26 -0.3,-0.36 -0.54,-0.36 -0.24,0 -0.39,0.16 -0.39,0.36 0,0.25 0.15,0.35 0.51,0.5l0.2 0.09c0.71,0.3 1.1,0.61 1.1,1.3 0,0.75 -0.58,1.15 -1.37,1.15z"/>
   <path class="fil1" d="M8.53 0l-7.95 0c-0.32,0 -0.58,0.26 -0.58,0.58l0 7.95c0,0.32 0.26,0.58 0.58,0.58l7.95 0c0.32,0 0.58,-0.26 0.58,-0.58l0 -7.95c0,-0.32 -0.26,-0.58 -0.58,-0.58zm-3.54 6.98c0,0.87 -0.51,1.26 -1.25,1.26 -0.67,0 -1.16,-0.45 -1.35,-0.86l0.68 -0.42c0.13,0.24 0.33,0.42 0.62,0.42 0.27,0 0.43,-0.11 0.43,-0.53l0 -2.73 0.87 0 0 2.86zm1.88 1.26c-0.77,0 -1.2,-0.38 -1.45,-0.86l0.65 -0.44c0.18,0.29 0.37,0.57 0.78,0.57 0.35,0 0.53,-0.17 0.53,-0.41 0,-0.28 -0.19,-0.38 -0.57,-0.55l-0.2 -0.09c-0.6,-0.25 -1,-0.57 -1,-1.24 0,-0.63 0.47,-1.1 1.21,-1.1 0.53,0 0.91,0.19 1.18,0.66l-0.64 0.42c-0.15,-0.26 -0.3,-0.36 -0.54,-0.36 -0.24,0 -0.39,0.16 -0.39,0.36 0,0.25 0.15,0.35 0.51,0.5l0.2 0.09c0.71,0.3 1.1,0.61 1.1,1.3 0,0.75 -0.58,1.15 -1.37,1.15z"/>
  </g>
 </g>
</svg>
