<?xml version="1.0" encoding="UTF-8"?>
<!DOCTYPE svg PUBLIC "-//W3C//DTD SVG 1.1//EN" "http://www.w3.org/Graphics/SVG/1.1/DTD/svg11.dtd">
<!-- Creator: CorelDRAW 2021 (64-Bit) -->
<svg xmlns="http://www.w3.org/2000/svg" xml:space="preserve" width="132px" height="129px" version="1.1" style="shape-rendering:geometricPrecision; text-rendering:geometricPrecision; image-rendering:optimizeQuality; fill-rule:evenodd; clip-rule:evenodd"
viewBox="0 0 13.15 12.9"
 xmlns:xlink="http://www.w3.org/1999/xlink"
 xmlns:xodm="http://www.corel.com/coreldraw/odm/2003">
 <defs>
  <style type="text/css">
   <![CDATA[
    .fil0 {fill:#5BE9B9}
   ]]>
  </style>
 </defs>
 <g id="Capa_x0020_1">
  <metadata id="CorelCorpID_0Corel-Layer"/>
  <g id="_3068499589168">
   <path class="fil0" d="M1.1 3.84l0 5.22 5.31 2.75 0.34 0 5.31 -2.75 0 -5.22 -5.3 -2.74 -0.35 -0.01 -5.31 2.75zm4.54 0.71l0.01 -0.64 1.59 0 0.01 0.65c-0.08,0.37 -0.23,0.7 -0.44,0.86l-0.72 0c-0.21,-0.14 -0.36,-0.48 -0.45,-0.87zm0.16 0.03l0.01 -0.52 1.27 0.01 0.01 0.51c-0.07,0.3 -0.19,0.56 -0.35,0.69l-0.58 0c-0.16,-0.11 -0.28,-0.38 -0.36,-0.69zm-4.37 2.96l10.29 0 0 0.07 -10.29 0 0 -0.07zm0.27 -0.42l0 -1.47 0.48 0 0.29 1 0.28 -1 0.48 0 0 1.47 -0.3 0 0 -1.16 -0.31 1.16 -0.31 0 -0.31 -1.16 0 1.16 -0.3 0zm2.21 -0.73c0,-0.15 0.02,-0.27 0.07,-0.37 0.04,-0.08 0.09,-0.14 0.15,-0.2 0.06,-0.06 0.13,-0.11 0.2,-0.14 0.1,-0.03 0.22,-0.05 0.34,-0.05 0.24,0 0.42,0.06 0.56,0.2 0.14,0.13 0.21,0.32 0.21,0.56 0,0.23 -0.07,0.42 -0.2,0.55 -0.14,0.14 -0.33,0.2 -0.56,0.2 -0.24,0 -0.42,-0.06 -0.56,-0.2 -0.14,-0.13 -0.21,-0.31 -0.21,-0.55zm0.33 -0.01c0,0.17 0.04,0.3 0.12,0.38 0.09,0.09 0.19,0.13 0.32,0.13 0.13,0 0.23,-0.04 0.31,-0.13 0.08,-0.08 0.12,-0.21 0.12,-0.38 0,-0.17 -0.04,-0.29 -0.11,-0.38 -0.08,-0.08 -0.19,-0.12 -0.32,-0.12 -0.13,0 -0.24,0.04 -0.32,0.13 -0.08,0.08 -0.12,0.21 -0.12,0.37zm2.89 0.2l0.31 0.08c-0.05,0.17 -0.12,0.29 -0.24,0.36 -0.11,0.08 -0.25,0.12 -0.41,0.12 -0.21,0 -0.39,-0.07 -0.52,-0.2 -0.14,-0.13 -0.2,-0.31 -0.2,-0.54 0,-0.25 0.06,-0.44 0.2,-0.57 0.13,-0.14 0.31,-0.2 0.53,-0.2 0.2,0 0.36,0.05 0.48,0.16 0.07,0.06 0.12,0.15 0.16,0.27l-0.32 0.07c-0.02,-0.08 -0.06,-0.14 -0.11,-0.18 -0.06,-0.05 -0.14,-0.07 -0.22,-0.07 -0.12,0 -0.21,0.04 -0.29,0.12 -0.07,0.07 -0.11,0.2 -0.11,0.37 0,0.19 0.04,0.32 0.11,0.4 0.07,0.08 0.17,0.12 0.28,0.12 0.09,0 0.16,-0.03 0.22,-0.08 0.06,-0.05 0.11,-0.13 0.13,-0.23zm1.02 0.54l0 -1.47 0.32 0 0 0.58 0.62 0 0 -0.58 0.32 0 0 1.47 -0.32 0 0 -0.64 -0.62 0 0 0.64 -0.32 0zm3.44 0l-0.34 0 -0.14 -0.34 -0.63 0 -0.13 0.34 -0.34 0 0.61 -1.47 0.34 0 0.63 1.47zm-0.58 -0.58l-0.22 -0.55 -0.22 0.55 0.44 0zm-9.58 -1.62l4.13 0 0 0.08 -4.13 0 0 -0.08zm5.89 0l4.4 0 0 0.08 -4.4 0 0 -0.08zm-0.93 -1.85c0.25,0.06 0.42,0.21 0.36,0.62 -0.17,0.05 -0.25,-0.11 -0.3,-0.26 -0.05,-0.13 0,-0.27 -0.06,-0.36zm-0.01 0.71c-0.28,-0.05 -0.18,-0.32 -0.23,-0.43 0.34,0.11 0.23,0.25 0.23,0.43z"/>
   <path class="fil0" d="M0.84 3.77c0.18,0 4.82,-2.56 5.48,-2.9l0.51 0 5.4 2.83 0 5.5 -5.32 2.75 -0.67 0 -5.4 -2.82 0 -5.36zm-0.84 -0.44l0 6.23 6.32 3.34 0.51 0 6.32 -3.34 0 -6.23 -6.32 -3.33 -0.51 0 -6.32 3.33z"/>
  </g>
 </g>
</svg>
