<?xml version="1.0" encoding="UTF-8"?>
<!DOCTYPE svg PUBLIC "-//W3C//DTD SVG 1.1//EN" "http://www.w3.org/Graphics/SVG/1.1/DTD/svg11.dtd">
<!-- Creator: CorelDRAW 2021 (64-Bit) -->
<svg xmlns="http://www.w3.org/2000/svg" xml:space="preserve" width="132px" height="129px" version="1.1" style="shape-rendering:geometricPrecision; text-rendering:geometricPrecision; image-rendering:optimizeQuality; fill-rule:evenodd; clip-rule:evenodd"
viewBox="0 0 17.07 16.74"
 xmlns:xlink="http://www.w3.org/1999/xlink"
 xmlns:xodm="http://www.corel.com/coreldraw/odm/2003">
 <defs>
  <style type="text/css">
   <![CDATA[
    .fil0 {fill:#8D6748}
   ]]>
  </style>
 </defs>
 <g id="Capa_x0020_1">
  <metadata id="CorelCorpID_0Corel-Layer"/>
  <g id="_3068231619856">
   <path class="fil0" d="M1.42 4.98l0 6.78 6.9 3.57 0.44 0 6.89 -3.57 0 -6.78 -6.87 -3.56 -0.46 -0.01 -6.9 3.57zm5.9 0.93l0.01 -0.84 2.07 0.01 0.01 0.83c-0.11,0.49 -0.3,0.91 -0.57,1.12l-0.94 0.01c-0.27,-0.19 -0.46,-0.63 -0.58,-1.13zm0.21 0.03l0.01 -0.67 1.66 0.01 0 0.67c-0.08,0.38 -0.24,0.72 -0.45,0.89l-0.75 0.01c-0.22,-0.15 -0.37,-0.51 -0.47,-0.91zm-5.67 3.84l13.35 0 0 0.1 -13.35 0 0 -0.1zm0.35 -0.54l0 -1.9 0.62 0 0.37 1.29 0.36 -1.29 0.63 0 0 1.9 -0.39 0 0 -1.5 -0.4 1.5 -0.4 0 -0.4 -1.5 0 1.5 -0.39 0zm2.87 -0.94c0,-0.19 0.03,-0.36 0.09,-0.49 0.05,-0.1 0.11,-0.18 0.19,-0.26 0.08,-0.08 0.17,-0.13 0.27,-0.17 0.12,-0.05 0.27,-0.08 0.44,-0.08 0.3,0 0.54,0.09 0.72,0.26 0.19,0.18 0.28,0.42 0.28,0.73 0,0.31 -0.09,0.55 -0.27,0.72 -0.18,0.18 -0.43,0.26 -0.73,0.26 -0.3,0 -0.54,-0.08 -0.72,-0.26 -0.18,-0.17 -0.27,-0.41 -0.27,-0.71zm0.42 -0.01c0,0.21 0.06,0.37 0.16,0.49 0.11,0.11 0.25,0.16 0.41,0.16 0.17,0 0.3,-0.05 0.41,-0.16 0.11,-0.11 0.16,-0.28 0.16,-0.5 0,-0.22 -0.05,-0.38 -0.16,-0.49 -0.1,-0.1 -0.24,-0.16 -0.41,-0.16 -0.17,0 -0.31,0.06 -0.41,0.16 -0.11,0.11 -0.16,0.28 -0.16,0.5zm3.76 0.25l0.4 0.11c-0.06,0.21 -0.16,0.37 -0.31,0.47 -0.14,0.1 -0.32,0.15 -0.54,0.15 -0.27,0 -0.5,-0.09 -0.67,-0.26 -0.18,-0.17 -0.27,-0.41 -0.27,-0.71 0,-0.31 0.09,-0.56 0.27,-0.73 0.17,-0.18 0.41,-0.27 0.69,-0.27 0.25,0 0.46,0.07 0.61,0.21 0.1,0.08 0.17,0.2 0.21,0.35l-0.41 0.09c-0.02,-0.1 -0.07,-0.18 -0.15,-0.23 -0.07,-0.06 -0.17,-0.09 -0.28,-0.09 -0.15,0 -0.27,0.05 -0.37,0.15 -0.09,0.1 -0.14,0.27 -0.14,0.49 0,0.24 0.05,0.42 0.14,0.52 0.09,0.1 0.21,0.15 0.36,0.15 0.11,0 0.21,-0.03 0.29,-0.1 0.08,-0.06 0.13,-0.16 0.17,-0.3zm1.31 0.7l0 -1.9 0.42 0 0 0.75 0.81 0 0 -0.75 0.41 0 0 1.9 -0.41 0 0 -0.83 -0.81 0 0 0.83 -0.42 0zm4.48 0l-0.45 0 -0.18 -0.43 -0.82 0 -0.17 0.43 -0.44 0 0.8 -1.9 0.44 0 0.82 1.9zm-0.76 -0.76l-0.29 -0.7 -0.27 0.7 0.56 0zm-12.43 -2.09l5.35 0 0 0.1 -5.35 0 0 -0.1zm7.64 0l5.72 0 0 0.1 -5.72 0 0 -0.1zm-1.21 -2.41c0.33,0.08 0.55,0.28 0.47,0.8 -0.22,0.08 -0.32,-0.13 -0.39,-0.32 -0.06,-0.18 0.01,-0.36 -0.08,-0.48zm0 0.93c-0.37,-0.06 -0.25,-0.42 -0.31,-0.56 0.44,0.14 0.3,0.33 0.31,0.56z"/>
   <path class="fil0" d="M1.09 4.89c0.23,0 6.26,-3.32 7.12,-3.76l0.66 0 7 3.67 0 7.14 -6.89 3.58 -0.88 0 -7.01 -3.67 0 -6.96zm-1.09 -0.56l0 8.08 8.21 4.33 0.66 0 8.2 -4.33 0 -8.08 -8.2 -4.33 -0.66 0 -8.21 4.33z"/>
  </g>
 </g>
</svg>
