<?xml version="1.0" encoding="UTF-8"?>
<!DOCTYPE svg PUBLIC "-//W3C//DTD SVG 1.1//EN" "http://www.w3.org/Graphics/SVG/1.1/DTD/svg11.dtd">
<!-- Creator: CorelDRAW 2021 (64-Bit) -->
<svg xmlns="http://www.w3.org/2000/svg" xml:space="preserve" width="131px" height="130px" version="1.1" style="shape-rendering:geometricPrecision; text-rendering:geometricPrecision; image-rendering:optimizeQuality; fill-rule:evenodd; clip-rule:evenodd"
viewBox="0 0 6.9 6.84"
 xmlns:xlink="http://www.w3.org/1999/xlink"
 xmlns:xodm="http://www.corel.com/coreldraw/odm/2003">
 <defs>
  <style type="text/css">
   <![CDATA[
    .fil0 {fill:#5BE9B9}
   ]]>
  </style>
 </defs>
 <g id="Capa_x0020_1">
  <metadata id="CorelCorpID_0Corel-Layer"/>
  <path class="fil0" d="M4.51 1.75c-0.15,-0.46 -0.38,-0.86 -0.71,-1.21 -0.09,-0.08 -0.18,-0.16 -0.24,-0.27 -0.04,-0.07 -0.07,-0.14 -0.11,-0.21l-0.02 -0.06 -0.01 0.02c0,0.12 -0.06,0.19 -0.14,0.26 -0.09,0.09 -0.18,0.17 -0.26,0.26l-0.27 0.35 -0.21 0.39 -0.15 0.39 0 0.01c-0.08,0.26 -0.12,0.53 -0.14,0.8 -0.01,0.1 0,0.2 0.01,0.3 0,0.15 0.03,0.29 0.07,0.43 0.14,0.51 0.42,0.94 0.8,1.3 0.07,0.07 0.15,0.13 0.22,0.19l0.03 0.12 0.03 0.17 0.02 0.18c0,0.04 0,0.08 0,0.12 0,0 0.01,0.01 0.02,0.02l0.06 0.02 0.07 0.03 -0.01 -0.16 -0.01 -0.16 0.03 -0.25 0.01 -0.05 0.05 -0.08c0.06,-0.05 0.12,-0.09 0.17,-0.14 0.09,-0.09 0.19,-0.19 0.27,-0.29 0.11,-0.13 0.21,-0.27 0.28,-0.43 0.05,-0.1 0.1,-0.21 0.14,-0.31 0.03,-0.1 0.06,-0.2 0.08,-0.3l0.01 -0.02c0.06,-0.26 0.07,-0.53 0.05,-0.79 -0.02,-0.22 -0.07,-0.43 -0.14,-0.63l0 0zm-1.12 2.82c0.01,-0.04 0.02,-0.08 0.03,-0.13 -0.01,0.05 -0.02,0.09 -0.03,0.13zm0.19 0.03l-0.03 -0.08 0.03 0.08 0.05 0.05 -0.05 -0.05zm2.26 1.01c-0.05,-0.09 -0.12,-0.16 -0.21,-0.2 -0.07,-0.04 -0.15,-0.05 -0.24,-0.06 -0.06,0 -0.12,0 -0.19,0.01 -0.05,0 -0.11,0 -0.16,0 -0.07,0 -0.13,-0.01 -0.2,-0.01 -0.01,0 -0.02,0 -0.02,0.01 -0.01,0.02 -0.02,0.04 -0.03,0.06l0.01 0c0.03,0.01 0.07,0.01 0.1,0.02 0.04,0.01 0.06,0.03 0.06,0.06 0,0.05 0.01,0.1 0.01,0.15 -0.01,0.2 -0.01,0.4 -0.01,0.6 0,0.01 0,0.02 0,0.04 -0.01,0.01 -0.01,0.03 -0.02,0.03 -0.02,0.02 -0.04,0.03 -0.06,0.03 -0.04,0 -0.04,0.01 -0.05,0.04l0 0.01c-0.01,0.02 -0.01,0.02 0.01,0.02 0.1,0 0.2,0.01 0.3,0.01 0.1,-0.01 0.19,0 0.28,-0.02 0.09,-0.01 0.17,-0.04 0.24,-0.09 0.1,-0.06 0.17,-0.15 0.2,-0.26 0.03,-0.09 0.04,-0.18 0.03,-0.27 -0.01,-0.06 -0.02,-0.12 -0.05,-0.18zm-0.18 0.54c-0.05,0.1 -0.14,0.17 -0.25,0.19 -0.07,0.01 -0.15,0.01 -0.21,-0.02 -0.05,-0.02 -0.06,-0.06 -0.07,-0.1 0,-0.04 0,-0.09 0,-0.13 0,-0.16 0,-0.31 0,-0.46 0,-0.05 0,-0.1 0,-0.15 0,-0.03 0.01,-0.04 0.05,-0.05 0.14,-0.01 0.28,0.01 0.4,0.11 0.07,0.06 0.11,0.14 0.12,0.24 0.01,0.04 0.01,0.08 0.02,0.12 -0.01,0.09 -0.02,0.17 -0.06,0.25l0 0zm1.22 -0.16c-0.03,-0.07 -0.08,-0.12 -0.15,-0.15 -0.02,-0.01 -0.05,-0.01 -0.07,-0.02l0.01 -0.01c0.03,-0.02 0.06,-0.03 0.08,-0.05 0.06,-0.05 0.08,-0.12 0.07,-0.2 -0.01,-0.07 -0.05,-0.13 -0.12,-0.16 -0.06,-0.03 -0.12,-0.05 -0.19,-0.05 -0.11,0 -0.23,0.01 -0.35,0.01 -0.04,0 -0.08,-0.01 -0.12,-0.01 0,0 -0.01,0 -0.02,0.01 -0.01,0.01 -0.01,0.03 -0.02,0.05 0,0.01 0,0.01 0.01,0.01 0.03,0.01 0.06,0.01 0.08,0.01 0.04,0.01 0.06,0.03 0.06,0.07l0 0.02c0,0.12 0.01,0.24 0,0.37 0,0.12 0,0.24 0,0.36 0,0.01 0,0.03 0,0.04 -0.01,0.03 -0.02,0.04 -0.04,0.05l-0.07 0.01c-0.01,0 -0.02,0 -0.02,0.01 -0.01,0.01 -0.02,0.03 -0.02,0.06l0.01 0 0.22 0.01 0.04 0c0.08,-0.01 0.16,0 0.23,-0.01 0.09,0 0.16,-0.03 0.24,-0.07 0.07,-0.04 0.13,-0.1 0.15,-0.19 0.02,-0.06 0.02,-0.12 -0.01,-0.17l0 0zm-0.56 -0.52c0,-0.02 0.01,-0.03 0.03,-0.04 0.06,0 0.12,0 0.18,0.02 0.07,0.03 0.12,0.09 0.12,0.17 0,0.03 0,0.06 -0.01,0.09 -0.02,0.06 -0.07,0.09 -0.12,0.09 -0.04,0.01 -0.07,0.01 -0.09,0.01l-0.1 0c-0.01,-0.01 -0.01,-0.01 -0.01,-0.02l0 -0.32zm0.38 0.76c-0.03,0.06 -0.08,0.1 -0.15,0.11 -0.05,0.01 -0.11,0.01 -0.16,-0.01 -0.04,-0.01 -0.06,-0.04 -0.07,-0.08 0,-0.02 0,-0.05 0,-0.07 0,-0.04 0,-0.12 0,-0.12l0 0c0,-0.05 0,-0.1 0,-0.16 0,-0.01 0,-0.01 0.01,-0.01 0.05,0 0.11,0 0.16,0 0.04,0 0.08,0.01 0.12,0.04 0.06,0.03 0.1,0.08 0.11,0.15 0.01,0.05 0,0.1 -0.02,0.15l0 0zm-5.54 0.06l0 -0.31c0,-0.04 0,-0.09 -0.02,-0.13 -0.04,-0.12 -0.15,-0.18 -0.27,-0.13 -0.06,0.02 -0.1,0.05 -0.15,0.08 -0.03,0.02 -0.03,0.02 -0.05,-0.01 -0.05,-0.08 -0.13,-0.1 -0.22,-0.08 -0.06,0.02 -0.11,0.06 -0.16,0.09 -0.01,0.01 -0.02,0.01 -0.02,0.01 -0.01,0 -0.01,-0.01 -0.01,-0.02l0 -0.05c0.01,-0.01 0,-0.03 0,-0.04 -0.02,0.01 -0.04,0.02 -0.06,0.02 -0.05,0.02 -0.11,0.03 -0.17,0.04 -0.01,0.01 -0.03,0.01 -0.03,0.03 0,0.01 0.01,0.01 0.03,0.02 0.02,0.01 0.05,0.02 0.07,0.03 0.02,0.01 0.03,0.03 0.03,0.05 0,0.09 0,0.19 0,0.28 0,0.04 0,0.08 -0.01,0.12 0,0.03 -0.01,0.05 -0.04,0.05 -0.02,0.01 -0.04,0.01 -0.06,0.02 0,0 -0.01,0 -0.01,0 0,0.02 0,0.03 0.01,0.05 0,0 0.01,0 0.02,0.01l0.01 -0.01c0.07,0 0.14,0 0.2,0 0.04,0 0.08,0 0.12,0l0 -0.05c-0.02,-0.01 -0.04,-0.01 -0.06,-0.01 -0.03,-0.01 -0.05,-0.03 -0.05,-0.06l0 -0.04c0,-0.12 0,-0.23 0,-0.35 0,-0.02 0.01,-0.03 0.02,-0.04 0.03,-0.02 0.07,-0.04 0.1,-0.05 0.08,-0.02 0.15,0.01 0.18,0.08 0.01,0.02 0.01,0.04 0.02,0.06 0.01,0.12 0,0.23 0,0.35 -0.01,0.02 -0.02,0.04 -0.04,0.04l-0.06 0.02c0,0 -0.01,-0.01 -0.01,0 0,0.01 0,0.04 0,0.04l0.01 0 0.18 0c0.05,0 0.09,0.01 0.14,0.01 0.01,0 0.02,0 0.02,-0.01 0,-0.01 0,-0.03 0,-0.04l-0.01 -0.01 -0.05 -0.01c-0.03,0 -0.04,-0.02 -0.04,-0.05 -0.01,-0.09 0,-0.17 0,-0.25 -0.01,-0.05 -0.01,-0.1 -0.01,-0.15 0,-0.01 0,-0.02 0.01,-0.02 0.03,-0.02 0.06,-0.04 0.1,-0.05 0.11,-0.03 0.2,0.03 0.2,0.14 0.01,0.11 0.01,0.22 0,0.33 0,0.04 -0.01,0.05 -0.05,0.06l-0.01 0c-0.04,0.01 -0.04,0.01 -0.03,0.05 0,0.01 0,0.02 0.01,0.01 0.08,0 0.16,0 0.24,0 0.03,0 0.06,0 0.09,0l0.01 -0.05c-0.03,-0.01 -0.06,-0.01 -0.08,-0.02 -0.03,-0.01 -0.04,-0.03 -0.04,-0.05l0 0zm2.67 -0.46c0.03,-0.03 0.03,-0.07 0.02,-0.12 -0.02,0.03 -0.05,0.04 -0.08,0.04 -0.04,0.01 -0.09,0 -0.13,-0.01 -0.11,-0.05 -0.21,-0.05 -0.32,0 -0.09,0.05 -0.15,0.12 -0.15,0.22 -0.01,0.06 0.01,0.12 0.05,0.18 0.03,0.03 0.06,0.05 0.1,0.06 0.01,0.01 0.02,0.02 0,0.03 -0.01,0 -0.02,0.01 -0.03,0.02 -0.02,0.01 -0.05,0.03 -0.07,0.04 -0.01,0.01 -0.02,0.02 -0.01,0.03 0.01,0.05 0.04,0.08 0.09,0.1l0.01 0.01 -0.01 0.01c-0.04,0.04 -0.09,0.07 -0.12,0.1 -0.04,0.03 -0.05,0.07 -0.04,0.11 0.02,0.09 0.08,0.15 0.16,0.17 0.15,0.04 0.28,0.02 0.4,-0.07 0.08,-0.05 0.13,-0.11 0.14,-0.2 0.02,-0.1 -0.03,-0.19 -0.14,-0.21 -0.06,-0.01 -0.13,-0.02 -0.2,-0.02 -0.03,-0.01 -0.06,-0.01 -0.09,-0.02 -0.03,0 -0.04,-0.02 -0.04,-0.04 0,-0.03 0.02,-0.04 0.05,-0.05 0.05,0 0.1,-0.01 0.15,-0.03 0.12,-0.06 0.17,-0.15 0.16,-0.29 0,-0.01 -0.01,-0.03 -0.01,-0.05 0.04,0.01 0.08,0.02 0.11,-0.01l0 0zm-0.37 0.61c0.05,0.01 0.11,0.01 0.16,0.03 0.05,0.01 0.09,0.03 0.1,0.09 0.01,0.06 -0.02,0.13 -0.08,0.16 -0.06,0.03 -0.12,0.04 -0.19,0.03 -0.05,-0.01 -0.1,-0.02 -0.14,-0.07 -0.06,-0.05 -0.06,-0.12 0,-0.18 0.04,-0.05 0.07,-0.06 0.15,-0.06l0 0zm0.12 -0.39c-0.02,0.1 -0.11,0.11 -0.17,0.08 -0.06,-0.03 -0.09,-0.08 -0.1,-0.13 0,-0.02 0,-0.05 -0.01,-0.07 0,-0.03 0.01,-0.06 0.02,-0.09 0.04,-0.09 0.15,-0.08 0.21,-0.04 0.02,0.01 0.04,0.04 0.05,0.07 0.02,0.06 0.02,0.12 0,0.18l0 0zm-0.52 0.3c-0.02,0 -0.04,-0.01 -0.06,-0.01 -0.04,-0.01 -0.04,-0.02 -0.04,-0.06 0,-0.1 0,-0.2 0,-0.3 0,-0.04 -0.01,-0.09 -0.02,-0.13 -0.04,-0.12 -0.15,-0.18 -0.26,-0.14 -0.06,0.02 -0.12,0.05 -0.17,0.09l-0.02 0.01 0 -0.01c0.01,-0.03 0.01,-0.05 0.01,-0.07 0,-0.01 -0.01,-0.02 -0.01,-0.03 -0.04,0.01 -0.08,0.03 -0.12,0.04 -0.04,0 -0.08,0.01 -0.12,0.02 -0.01,0 -0.03,0.02 -0.03,0.03 0,0.02 0.02,0.02 0.03,0.03 0.03,0.01 0.05,0.02 0.08,0.03 0.01,0.01 0.02,0.02 0.02,0.04 0,0.13 0,0.26 0,0.39 0,0.04 -0.02,0.05 -0.06,0.06l-0.01 0.01c-0.04,0 -0.04,0 -0.04,0.04l0 0.01c0,0.02 0.01,0.02 0.02,0.02 0.1,0 0.2,0 0.3,0 0.05,0 0.05,0 0.05,-0.05l0 -0.02c-0.03,0 -0.05,0 -0.07,-0.01 -0.03,0 -0.04,-0.01 -0.04,-0.04 0,-0.02 0,-0.04 0,-0.07 0,-0.1 0,-0.2 0,-0.3 0,-0.03 0,-0.05 0.02,-0.07 0.04,-0.03 0.08,-0.04 0.12,-0.04 0.09,-0.01 0.16,0.04 0.17,0.13 0,0.11 0,0.22 0,0.33 0,0.01 0,0.02 0,0.03 0,0.01 -0.01,0.02 -0.03,0.03 -0.01,0 -0.03,0.01 -0.05,0.01 -0.02,0 -0.02,0 -0.02,0.03l0 0.01c0,0.03 0,0.03 0.03,0.03 0.1,0 0.19,0 0.29,0 0.04,0 0.04,0 0.04,-0.04l0 -0.01c0,-0.01 0,-0.02 -0.01,-0.02l0 0zm1.35 -0.64c-0.1,-0.02 -0.2,0 -0.29,0.04 -0.09,0.05 -0.15,0.12 -0.17,0.22 -0.02,0.1 -0.01,0.19 0.03,0.29 0.03,0.06 0.07,0.1 0.13,0.13 0.14,0.07 0.31,0.04 0.42,-0.05 0.09,-0.08 0.12,-0.18 0.12,-0.3 0,-0.01 0,-0.03 0,-0.06 -0.02,-0.13 -0.11,-0.24 -0.24,-0.27zm0.08 0.52c-0.03,0.1 -0.12,0.15 -0.23,0.11 -0.05,-0.01 -0.09,-0.05 -0.11,-0.1 -0.07,-0.11 -0.08,-0.22 -0.04,-0.34 0.02,-0.08 0.09,-0.13 0.16,-0.12 0.07,0 0.13,0.04 0.17,0.09 0.04,0.06 0.06,0.13 0.06,0.2 0,0.01 0,0.03 0,0.04l0.01 0c-0.01,0.04 -0.01,0.08 -0.02,0.12l0 0zm-2.63 -0.52c-0.11,-0.02 -0.21,0 -0.3,0.06 -0.08,0.04 -0.13,0.11 -0.15,0.2 -0.02,0.09 -0.01,0.17 0.02,0.26 0.02,0.05 0.04,0.09 0.08,0.12 0.09,0.08 0.19,0.09 0.3,0.07 0.09,-0.01 0.17,-0.05 0.23,-0.13 0.05,-0.07 0.07,-0.15 0.07,-0.24 0,-0.03 0,-0.06 -0.01,-0.08 -0.02,-0.14 -0.1,-0.23 -0.24,-0.26l0 0zm0.09 0.52c-0.03,0.1 -0.12,0.15 -0.23,0.11 -0.06,-0.02 -0.1,-0.07 -0.13,-0.13 -0.04,-0.1 -0.05,-0.2 -0.03,-0.31 0.03,-0.08 0.09,-0.14 0.19,-0.12 0.06,0.01 0.11,0.04 0.14,0.09 0.05,0.06 0.07,0.14 0.07,0.22l0 0.02 0 0c0,0.04 0,0.08 -0.01,0.12l0 0z"/>
 </g>
</svg>
