<?xml version="1.0" encoding="UTF-8"?>
<!DOCTYPE svg PUBLIC "-//W3C//DTD SVG 1.1//EN" "http://www.w3.org/Graphics/SVG/1.1/DTD/svg11.dtd">
<!-- Creator: CorelDRAW 2021 (64-Bit) -->
<svg xmlns="http://www.w3.org/2000/svg" xml:space="preserve" width="157px" height="178px" version="1.1" style="shape-rendering:geometricPrecision; text-rendering:geometricPrecision; image-rendering:optimizeQuality; fill-rule:evenodd; clip-rule:evenodd"
viewBox="0 0 21.39 24.15"
 xmlns:xlink="http://www.w3.org/1999/xlink"
 xmlns:xodm="http://www.corel.com/coreldraw/odm/2003">
 <defs>
  <style type="text/css">
   <![CDATA[
    .str0 {stroke:black;stroke-width:0.32;stroke-miterlimit:22.9256}
    .fil0 {fill:none}
    .fil1 {fill:#79B33E}
   ]]>
  </style>
 </defs>
 <g id="Capa_x0020_1">
  <metadata id="CorelCorpID_0Corel-Layer"/>
  <g id="_3068239245472">
   <path class="fil0 str0" d="M11.31 0.27l4.6 2.76 4.77 2.75c0.31,0.22 0.5,0.55 0.54,0.93l-0.08 5.37 0 5.5c-0.04,0.38 -0.23,0.71 -0.54,0.94l-4.69 2.6 -4.76 2.75c-0.35,0.16 -0.73,0.16 -1.08,0.01l-4.6 -2.76 -4.77 -2.75c-0.3,-0.22 -0.5,-0.55 -0.54,-0.93l0.09 -5.36 0 -5.51c0.04,-0.38 0.23,-0.71 0.53,-0.93l4.69 -2.61 4.77 -2.75c0.34,-0.16 0.73,-0.16 1.07,-0.01z"/>
   <path class="fil1" d="M8.69 20.2c-0.53,0.24 -1.07,0.49 -1.6,0.73 0.89,0.54 1.78,1.07 2.67,1.6 1.04,0.61 1.52,0.29 2.33,-0.2 2.47,-1.4 4.94,-2.79 7.41,-4.19 0.72,-0.44 0.88,-0.81 0.92,-1.87 0,-2.89 0,-5.78 0,-8.67 0.01,-0.62 -0.23,-1.34 -1,-1.87 -2.53,-1.46 -5.06,-2.93 -7.6,-4.4 -0.65,-0.31 -1.2,-0.31 -1.8,0 -2.6,1.49 -5.2,2.98 -7.8,4.47 -0.69,0.47 -1.08,1.21 -1.06,1.6 0,2.82 0,5.64 0,8.47 0.07,1.41 0.17,1.84 0.8,2.2 1,0.49 2,0.97 3,1.46 2.12,0.68 3.31,-0.39 3.33,-1.8 -0.04,-3.29 -0.09,-6.57 -0.13,-9.86 -0.43,0.02 -0.85,0.04 -1.27,0.06 -0.02,2.98 -0.04,5.96 -0.07,8.94 0,1.37 -0.65,1.67 -1.73,1.26 -0.73,-0.37 -1.47,-0.75 -2.2,-1.13 -0.3,-0.2 -0.4,-0.43 -0.4,-0.92 -0.02,-2.91 -0.04,-5.83 -0.07,-8.75 2.76,-1.62 5.51,-3.24 8.27,-4.86 2.8,1.62 5.6,3.24 8.4,4.86 -0.02,3.14 -0.05,6.27 -0.07,9.4 -2.75,1.6 -5.51,3.2 -8.26,4.8 -0.69,-0.44 -1.38,-0.89 -2.07,-1.33z"/>
   <path class="fil1" d="M8.97 13.47l1.46 -0.06c0.09,0.57 0.57,1.37 1.06,1.58 0.4,0.17 1.04,0.2 1.82,0.2 0.78,0 1.33,-0.01 1.68,-0.21 0.4,-0.24 0.6,-0.46 0.6,-0.82 0,-0.33 -0.17,-0.59 -0.51,-0.77 -0.24,-0.13 -0.82,-0.3 -1.75,-0.5 -1.24,-0.26 -2.11,-0.43 -2.59,-0.62 -0.49,-0.2 -0.85,-0.5 -1.1,-0.85 -0.25,-0.34 -0.38,-0.76 -0.38,-1.18 0,-0.38 0.11,-0.73 0.31,-1.05 0.21,-0.33 0.49,-0.6 0.84,-0.81 0.27,-0.16 0.56,-0.37 1.02,-0.49 0.46,-0.11 1.04,-0.17 1.57,-0.17 0.79,0 1.45,0.1 2.04,0.29 0.6,0.19 1.04,0.52 1.32,0.85 0.29,0.33 0.55,1.31 0.56,1.9l-1.44 -0.01c-0.07,-0.44 -0.53,-1.12 -0.89,-1.37 -0.36,-0.25 -0.84,-0.27 -1.5,-0.27 -0.78,0 -1.34,0.01 -1.67,0.23 -0.34,0.21 -0.51,0.44 -0.51,0.73 0,0.19 0.07,0.36 0.21,0.51 0.14,0.16 0.36,0.29 0.65,0.39 0.18,0.05 0.66,0.25 1.51,0.37 1.2,0.17 2.08,0.3 2.55,0.47 0.48,0.17 0.86,0.43 1.16,0.89 0.24,0.36 0.35,0.81 0.35,1.31 0,0.48 -0.17,0.93 -0.5,1.36 -0.33,0.42 -0.81,0.75 -1.44,0.99 -0.62,0.23 -1.33,0.34 -2.12,0.34 -1.31,0 -2.26,-0.3 -2.99,-0.69 -0.78,-0.41 -1.21,-1.59 -1.32,-2.54z"/>
  </g>
 </g>
</svg>
