<?xml version="1.0" encoding="UTF-8"?>
<!DOCTYPE svg PUBLIC "-//W3C//DTD SVG 1.1//EN" "http://www.w3.org/Graphics/SVG/1.1/DTD/svg11.dtd">
<!-- Creator: CorelDRAW 2021 (64-Bit) -->
<svg xmlns="http://www.w3.org/2000/svg" xml:space="preserve" width="157px" height="178px" version="1.1" style="shape-rendering:geometricPrecision; text-rendering:geometricPrecision; image-rendering:optimizeQuality; fill-rule:evenodd; clip-rule:evenodd"
viewBox="0 0 30.07 33.96"
 xmlns:xlink="http://www.w3.org/1999/xlink"
 xmlns:xodm="http://www.corel.com/coreldraw/odm/2003">
 <defs>
  <style type="text/css">
   <![CDATA[
    .str0 {stroke:#5BE9B9;stroke-width:0.45;stroke-miterlimit:22.9256}
    .fil0 {fill:none}
    .fil1 {fill:#5BE9B9}
   ]]>
  </style>
 </defs>
 <g id="Capa_x0020_1">
  <metadata id="CorelCorpID_0Corel-Layer"/>
  <g id="_3068477405456">
   <path class="fil0 str0" d="M15.91 0.38l6.47 3.88 6.7 3.87c0.44,0.31 0.71,0.78 0.77,1.31l-0.13 7.54 0 7.74c-0.05,0.53 -0.32,1 -0.75,1.32l-6.59 3.66 -6.7 3.87c-0.49,0.22 -1.03,0.22 -1.52,0.01l-6.47 -3.88 -6.7 -3.87c-0.43,-0.31 -0.7,-0.78 -0.76,-1.31l0.12 -7.54 0 -7.74c0.05,-0.53 0.32,-1 0.75,-1.31l6.59 -3.67 6.71 -3.87c0.48,-0.22 1.02,-0.22 1.51,-0.01z"/>
   <path class="fil1" d="M12.22 28.4c-0.75,0.35 -1.5,0.69 -2.25,1.04 1.25,0.75 2.5,1.49 3.75,2.24 1.47,0.86 2.14,0.41 3.28,-0.28 3.47,-1.96 6.95,-3.92 10.42,-5.89 1.01,-0.62 1.23,-1.14 1.3,-2.64 0,-4.06 0,-8.12 0,-12.18 0.01,-0.88 -0.33,-1.88 -1.41,-2.63 -3.56,-2.06 -7.12,-4.12 -10.68,-6.18 -0.93,-0.44 -1.69,-0.45 -2.53,0 -3.66,2.09 -7.32,4.18 -10.97,6.28 -0.98,0.65 -1.52,1.7 -1.5,2.25 0,3.97 0,7.93 0,11.9 0.1,1.99 0.23,2.6 1.12,3.09 1.41,0.69 2.82,1.38 4.22,2.07 2.99,0.95 4.67,-0.55 4.69,-2.53 -0.06,-4.63 -0.13,-9.25 -0.19,-13.88 -0.59,0.03 -1.19,0.07 -1.78,0.1 -0.03,4.18 -0.06,8.37 -0.09,12.56 -0.02,1.93 -0.93,2.35 -2.44,1.78 -1.03,-0.53 -2.06,-1.06 -3.09,-1.6 -0.43,-0.28 -0.57,-0.6 -0.57,-1.29 -0.03,-4.1 -0.06,-8.2 -0.09,-12.3 3.87,-2.28 7.75,-4.56 11.62,-6.84 3.94,2.28 7.88,4.56 11.81,6.84 -0.03,4.41 -0.06,8.81 -0.09,13.22 -3.88,2.25 -7.75,4.5 -11.62,6.75 -0.97,-0.63 -1.94,-1.25 -2.91,-1.88z"/>
   <path class="fil1" d="M12.62 18.94l2.05 -0.09c0.13,0.81 0.8,1.93 1.48,2.23 0.56,0.24 1.47,0.27 2.56,0.27 1.11,0 1.88,0 2.37,-0.29 0.56,-0.33 0.84,-0.64 0.84,-1.15 0,-0.46 -0.24,-0.83 -0.71,-1.09 -0.34,-0.18 -1.16,-0.41 -2.46,-0.69 -1.76,-0.38 -2.97,-0.6 -3.65,-0.88 -0.68,-0.28 -1.19,-0.7 -1.54,-1.19 -0.35,-0.48 -0.53,-1.07 -0.53,-1.65 0,-0.54 0.14,-1.04 0.43,-1.49 0.29,-0.46 0.68,-0.83 1.18,-1.14 0.37,-0.23 0.79,-0.52 1.43,-0.68 0.64,-0.16 1.47,-0.25 2.21,-0.25 1.11,0 2.03,0.14 2.87,0.41 0.84,0.28 1.46,0.74 1.86,1.2 0.4,0.47 0.77,1.84 0.78,2.67l-2.02 -0.01c-0.11,-0.62 -0.74,-1.58 -1.25,-1.93 -0.51,-0.35 -1.18,-0.39 -2.12,-0.39 -1.09,0 -1.88,0.02 -2.35,0.33 -0.47,0.31 -0.7,0.62 -0.7,1.04 0,0.26 0.09,0.5 0.29,0.71 0.19,0.22 0.5,0.4 0.92,0.54 0.24,0.08 0.92,0.35 2.11,0.52 1.69,0.25 2.92,0.42 3.6,0.67 0.67,0.24 1.2,0.6 1.63,1.25 0.33,0.51 0.48,1.14 0.48,1.84 0,0.67 -0.23,1.31 -0.7,1.91 -0.47,0.6 -1.14,1.06 -2.02,1.39 -0.88,0.33 -1.88,0.49 -2.99,0.49 -1.84,0 -3.18,-0.43 -4.2,-0.97 -1.1,-0.58 -1.7,-2.25 -1.85,-3.58z"/>
  </g>
 </g>
</svg>
