<?xml version="1.0" encoding="UTF-8"?>
<!DOCTYPE svg PUBLIC "-//W3C//DTD SVG 1.1//EN" "http://www.w3.org/Graphics/SVG/1.1/DTD/svg11.dtd">
<!-- Creator: CorelDRAW 2021 (64-Bit) -->
<svg xmlns="http://www.w3.org/2000/svg" xml:space="preserve" width="131px" height="131px" version="1.1" style="shape-rendering:geometricPrecision; text-rendering:geometricPrecision; image-rendering:optimizeQuality; fill-rule:evenodd; clip-rule:evenodd"
viewBox="0 0 9.7 9.7"
 xmlns:xlink="http://www.w3.org/1999/xlink"
 xmlns:xodm="http://www.corel.com/coreldraw/odm/2003">
 <defs>
  <style type="text/css">
   <![CDATA[
    .fil0 {fill:#3074C0}
   ]]>
  </style>
 </defs>
 <g id="Capa_x0020_1">
  <metadata id="CorelCorpID_0Corel-Layer"/>
  <path class="fil0" d="M1.36 0l6.98 0c0.75,0 1.36,0.61 1.36,1.36l0 6.98c0,0.75 -0.61,1.36 -1.36,1.36l-6.98 0c-0.75,0 -1.36,-0.61 -1.36,-1.36l0 -6.98c0,-0.75 0.61,-1.36 1.36,-1.36zm1.18 4.39l0 0.79 1.15 0 0 3.6 0.93 0 0 -3.6 1.15 0 0 -0.79 -3.23 0zm5.01 0c-0.72,0 -1.54,0.21 -1.54,1.23 0,1.32 1.78,1.32 1.78,1.92 0,0.05 0.02,0.47 -0.6,0.47 -0.63,0 -1.16,-0.4 -1.16,-0.4l0 0.96c0,0 2.75,0.89 2.75,-1.11 0,-1.3 -1.8,-1.24 -1.8,-1.88 0,-0.25 0.17,-0.49 0.67,-0.49 0.49,0 0.92,0.29 0.92,0.29l0.04 -0.85c0,0 -0.5,-0.14 -1.06,-0.14z"/>
 </g>
</svg>
