<?xml version="1.0" encoding="UTF-8"?>
<!DOCTYPE svg PUBLIC "-//W3C//DTD SVG 1.1//EN" "http://www.w3.org/Graphics/SVG/1.1/DTD/svg11.dtd">
<!-- Creator: CorelDRAW 2021 (64-Bit) -->
<svg xmlns="http://www.w3.org/2000/svg" xml:space="preserve" width="131px" height="131px" version="1.1" style="shape-rendering:geometricPrecision; text-rendering:geometricPrecision; image-rendering:optimizeQuality; fill-rule:evenodd; clip-rule:evenodd"
viewBox="0 0 11.67 11.67"
 xmlns:xlink="http://www.w3.org/1999/xlink"
 xmlns:xodm="http://www.corel.com/coreldraw/odm/2003">
 <defs>
  <style type="text/css">
   <![CDATA[
    .fil0 {fill:#5BE9B9}
    .fil1 {fill:black;fill-rule:nonzero}
   ]]>
  </style>
 </defs>
 <g id="Capa_x0020_1">
  <metadata id="CorelCorpID_0Corel-Layer"/>
  <g id="_3068228606288">
   <path class="fil0" d="M1.63 0l8.41 0c0.9,0 1.63,0.74 1.63,1.63l0 8.41c0,0.9 -0.73,1.63 -1.63,1.63l-8.41 0c-0.89,0 -1.63,-0.73 -1.63,-1.63l0 -8.41c0,-0.89 0.74,-1.63 1.63,-1.63zm1.43 5.28l0 0.96 1.39 0 0 4.32 1.11 0 0 -4.32 1.39 0 0 -0.96 -3.89 0zm6.03 0c-0.87,0 -1.86,0.26 -1.86,1.48 0,1.59 2.15,1.59 2.15,2.31 0,0.07 0.03,0.56 -0.73,0.56 -0.76,0 -1.39,-0.47 -1.39,-0.47l0 1.15c0,0 3.3,1.07 3.3,-1.34 0,-1.56 -2.16,-1.48 -2.16,-2.26 0,-0.3 0.21,-0.58 0.8,-0.58 0.59,0 1.12,0.35 1.12,0.35l0.04 -1.03c0,0 -0.6,-0.16 -1.27,-0.17z"/>
   <path class="fil1" d="M3.06 5.28l0 0.96 1.39 0 0 4.32 1.11 0 0 -4.32 1.39 0 0 -0.96 -3.89 0zm6.03 0c-0.87,0 -1.86,0.26 -1.86,1.48 0,1.59 2.15,1.59 2.15,2.31 0,0.07 0.03,0.56 -0.73,0.56 -0.76,0 -1.39,-0.47 -1.39,-0.47l0 1.15c0,0 3.3,1.07 3.3,-1.34 0,-1.56 -2.16,-1.48 -2.16,-2.26 0,-0.3 0.21,-0.58 0.8,-0.58 0.59,0 1.12,0.35 1.12,0.35l0.04 -1.03c0,0 -0.6,-0.16 -1.27,-0.17z"/>
  </g>
 </g>
</svg>
