<svg width="21" height="16" viewBox="0 0 21 16" fill="none" xmlns="http://www.w3.org/2000/svg">
<path d="M10.9366 12.5001C8.56043 12.5001 6.63698 10.6654 6.45998 8.34039L3.17382 5.80696C2.74183 6.34758 2.34429 6.91914 2.02351 7.54414C1.95185 7.68555 1.91451 7.84179 1.91451 8.00024C1.91451 8.15869 1.95185 8.31492 2.02351 8.45633C3.72235 11.7629 7.08557 14.0001 10.9366 14.0001C11.7795 14.0001 12.5928 13.8751 13.3766 13.6732L11.751 12.4185C11.4826 12.4703 11.21 12.4976 10.9366 12.5001ZM20.7675 14.3157L17.3043 11.6457C18.3563 10.7613 19.2215 9.67705 19.8496 8.45602C19.9213 8.31461 19.9586 8.15838 19.9586 7.99993C19.9586 7.84147 19.9213 7.68524 19.8496 7.54383C18.1508 4.23727 14.7875 2.00008 10.9366 2.00008C9.3237 2.00203 7.73705 2.40707 6.32152 3.17821L2.33615 0.105395C2.28418 0.0650531 2.22475 0.0353228 2.16126 0.0179024C2.09776 0.000481963 2.03145 -0.00428704 1.96611 0.00386788C1.90077 0.0120228 1.83768 0.0329418 1.78045 0.0654295C1.72321 0.0979172 1.67296 0.141337 1.63255 0.193207L1.01761 0.982895C0.936037 1.08758 0.899484 1.2203 0.915992 1.35186C0.9325 1.48342 1.00072 1.60306 1.10564 1.68446L19.537 15.8948C19.5889 15.9351 19.6484 15.9648 19.7118 15.9823C19.7753 15.9997 19.8417 16.0045 19.907 15.9963C19.9723 15.9881 20.0354 15.9672 20.0927 15.9347C20.1499 15.9022 20.2001 15.8588 20.2405 15.807L20.8558 15.0173C20.9373 14.9125 20.9738 14.7798 20.9573 14.6482C20.9407 14.5167 20.8724 14.3971 20.7675 14.3157ZM15.0121 9.87821L13.781 8.92883C13.8847 8.62992 13.9397 8.31636 13.9439 8.00008C13.95 7.53704 13.8472 7.07902 13.6437 6.66281C13.4401 6.24661 13.1416 5.88382 12.772 5.60359C12.4025 5.32336 11.9721 5.13349 11.5157 5.04925C11.0592 4.96501 10.5893 4.98873 10.1437 5.11852C10.3326 5.37386 10.4348 5.68273 10.4353 6.00008C10.4307 6.10569 10.4145 6.21047 10.3871 6.31258L8.08113 4.53477C8.88215 3.86702 9.89266 3.50085 10.9366 3.50008C11.529 3.49975 12.1158 3.61592 12.6632 3.84195C13.2107 4.06798 13.7081 4.39944 14.1271 4.81737C14.546 5.2353 14.8783 5.7315 15.1049 6.27762C15.3315 6.82373 15.4479 7.40904 15.4476 8.00008C15.4476 8.67602 15.2819 9.30571 15.0121 9.87821Z" fill="#926383"/>
</svg>
